<svg width="20" height="20" viewBox="0 0 20 20" fill="none" xmlns="http://www.w3.org/2000/svg">
<g clip-path="url(#clip0)">
<path d="M18.9443 4.79688L17.6676 17.6175H2.33259L1.30396 5.045L10.0001 9.91383L18.9443 4.79688Z" fill="#F2F2F2"/>
<path d="M18.5114 2.38184L10.0002 10.377L1.48901 2.38184H10.0002H18.5114Z" fill="#F2F2F2"/>
<path d="M2.3325 6.07426V17.6182H0.94293C0.422344 17.6182 0 17.1959 0 16.6752V4.37402L1.52344 4.41555L2.3325 6.07426Z" fill="#F14336"/>
<path d="M20 4.37398V16.6752C20 17.1958 19.5776 17.6182 19.0565 17.6182H17.6675V6.07422L18.4367 4.25684L20 4.37398Z" fill="#D32E2A"/>
<path d="M20 3.32477V4.3734L17.6675 6.07363L10 11.6622L2.3325 6.07363L0 4.3734V3.32477C0 2.80418 0.422344 2.38184 0.94293 2.38184H1.48883L10 8.58531L18.5112 2.38184H19.0566C19.5777 2.38184 20 2.80414 20 3.32477Z" fill="#F14336"/>
<path d="M2.3325 6.07426L0 5.71262V4.37402L2.3325 6.07426Z" fill="#D32E2A"/>
</g>
<defs>
<clipPath id="clip0">
<rect width="20" height="20" fill="white"/>
</clipPath>
</defs>
</svg>
