<svg width="20" height="20" viewBox="0 0 20 20" fill="none" xmlns="http://www.w3.org/2000/svg">
<g clip-path="url(#clip0)">
<path d="M10 0.00194468C4.59604 -0.104607 0.124363 4.18075 0.000976562 9.58433C0.0150767 12.335 1.23304 14.9415 3.33397 16.717V19.5834C3.33397 19.8134 3.52052 20 3.75061 20C3.82869 20 3.9052 19.978 3.97141 19.9367L6.29368 18.486C7.47685 18.9385 8.73325 19.1693 10 19.1668C15.404 19.2733 19.8756 14.9879 19.999 9.58437C19.8756 4.18076 15.404 -0.104607 10 0.00194468Z" fill="#2196F3"/>
<path d="M16.5826 6.8345C16.4586 6.66834 16.2314 6.61862 16.0493 6.71783L11.7164 9.0801L9.02089 6.76864C8.85559 6.62694 8.60906 6.63635 8.45513 6.79032L3.45562 11.7898C3.2934 11.953 3.29419 12.2168 3.45741 12.379C3.58791 12.5087 3.788 12.5375 3.94975 12.4498L8.28264 10.0875L10.9807 12.3998C11.146 12.5415 11.3925 12.5321 11.5465 12.3781L16.546 7.37858C16.6917 7.23153 16.7073 6.99979 16.5826 6.8345Z" fill="#FAFAFA"/>
</g>
<defs>
<clipPath id="clip0">
<rect width="20" height="20" fill="white"/>
</clipPath>
</defs>
</svg>
