<svg width="20" height="20" viewBox="0 0 20 20" fill="none" xmlns="http://www.w3.org/2000/svg">
<path d="M10 20C15.5228 20 20 15.5228 20 10C20 4.47715 15.5228 0 10 0C4.47715 0 0 4.47715 0 10C0 15.5228 4.47715 20 10 20Z" fill="url(#paint0_linear)"/>
<path d="M14.9999 5.38398L13.1548 15.3823C13.1548 15.3823 12.8967 16.0758 12.1871 15.7429L7.92901 12.2344L6.38073 11.4301L3.77434 10.4873C3.77434 10.4873 3.3741 10.3349 3.33543 10.002C3.29675 9.66913 3.7869 9.48908 3.7869 9.48908L14.1487 5.12084C14.1482 5.12032 14.9999 4.71818 14.9999 5.38398Z" fill="white"/>
<path d="M7.21774 15.0003C7.21774 15.0003 7.07693 14.9878 6.90106 14.453C6.72574 13.9187 5.83325 11.1056 5.83325 11.1056L12.9266 6.77336C12.9266 6.77336 13.3359 6.53404 13.3216 6.77336C13.3216 6.77336 13.3945 6.8155 13.1753 7.01268C12.9562 7.20986 7.60289 11.8371 7.60289 11.8371" fill="#D2E5F1"/>
<path d="M9.16667 13.1517L7.73434 14.9332C7.73434 14.9332 7.62251 15.049 7.5 14.9764L7.77421 11.667" fill="#B5CFE4"/>
<defs>
<linearGradient id="paint0_linear" x1="10" y1="0" x2="10" y2="19.927" gradientUnits="userSpaceOnUse">
<stop stop-color="#42BCE8"/>
<stop offset="1" stop-color="#23A7DC"/>
</linearGradient>
</defs>
</svg>
