<svg width="20" height="20" viewBox="0 0 20 20" fill="none" xmlns="http://www.w3.org/2000/svg">
<g clip-path="url(#clip0)">
<path d="M17.1084 8.39244C17.1324 5.57268 14.7308 2.98773 11.7548 2.63027C11.6957 2.62324 11.6312 2.61258 11.5629 2.60125C11.4156 2.57684 11.2632 2.55176 11.1095 2.55176C10.4996 2.55176 10.3366 2.98019 10.2936 3.23574C10.2519 3.48418 10.2917 3.69281 10.4118 3.85613C10.6138 4.13078 10.9691 4.17952 11.2546 4.21863C11.3383 4.23019 11.4172 4.24093 11.4833 4.25577C14.1571 4.85323 15.0574 5.79253 15.4974 8.44357C15.5081 8.50834 15.513 8.58818 15.5181 8.67283C15.5373 8.98974 15.5773 9.64903 16.2862 9.64903H16.2862C16.3453 9.64903 16.4087 9.64396 16.4747 9.63388C17.1347 9.53357 17.114 8.93091 17.1041 8.64134C17.1013 8.55978 17.0987 8.48263 17.1056 8.43134C17.1074 8.41842 17.1083 8.40541 17.1084 8.39244Z" fill="#7F40BD"/>
<path d="M10.9363 1.59554C11.0155 1.60124 11.0905 1.60671 11.1529 1.61628C15.5435 2.29151 17.5627 4.37174 18.1223 8.79668C18.1318 8.87192 18.1333 8.96364 18.1348 9.06079C18.1404 9.40649 18.1519 10.1257 18.9243 10.1406L18.9483 10.1408C19.1905 10.1408 19.3832 10.0678 19.521 9.92356C19.7614 9.67207 19.7447 9.29848 19.7311 8.99821C19.7278 8.92453 19.7247 8.85516 19.7254 8.79442C19.7813 4.26885 15.8639 0.165077 11.3424 0.0125C11.3236 0.011875 11.3057 0.0128906 11.2877 0.0154296C11.2788 0.0167187 11.2623 0.0183593 11.2341 0.0183593C11.189 0.0183593 11.1336 0.0144531 11.0747 0.0104687C11.0036 0.00558592 10.923 0 10.8413 0C10.1212 0 9.98431 0.511795 9.96681 0.816872C9.92642 1.52199 10.6085 1.5716 10.9363 1.59554Z" fill="#7F40BD"/>
<path d="M17.9104 14.5154C17.8171 14.4441 17.7205 14.3703 17.6302 14.2975C17.1508 13.9118 16.6408 13.5562 16.1476 13.2123C16.0452 13.141 15.9428 13.0696 15.8409 12.998C15.2091 12.5543 14.6411 12.3386 14.1044 12.3386C13.3816 12.3386 12.7515 12.738 12.2313 13.5255C12.0009 13.8746 11.7213 14.0443 11.3768 14.0443C11.1731 14.0443 10.9416 13.9862 10.6888 13.8715C8.64952 12.9467 7.19331 11.5288 6.36062 9.6572C5.95808 8.7526 6.08859 8.16131 6.79703 7.68006C7.19933 7.40702 7.94815 6.8987 7.89511 5.92531C7.83503 4.81992 5.39605 1.49388 4.3684 1.11615C3.93333 0.956146 3.47618 0.954661 3.00724 1.11243C1.82583 1.50958 0.978064 2.20704 0.555332 3.12926C0.146818 4.02039 0.165255 5.06672 0.608691 6.15515C1.89056 9.30209 3.69278 12.0458 5.96551 14.31C8.19011 16.5264 10.9243 18.3419 14.0921 19.7059C14.3777 19.8288 14.6771 19.8958 14.8958 19.9447C14.9704 19.9614 15.0347 19.9757 15.0816 19.9886C15.1074 19.9956 15.1339 19.9994 15.1606 19.9996L15.1857 19.9997C15.1857 19.9997 15.1857 19.9997 15.1858 19.9997C16.6757 19.9997 18.4647 18.6383 19.0142 17.0861C19.4955 15.727 18.6166 15.0552 17.9104 14.5154Z" fill="#7F40BD"/>
<path d="M11.5953 5.19C11.3402 5.19644 10.8093 5.20961 10.6231 5.75031C10.5359 6.00296 10.5464 6.22234 10.6541 6.40234C10.8123 6.66644 11.1153 6.74737 11.3909 6.79179C12.3903 6.95218 12.9036 7.50483 13.0062 8.53092C13.0539 9.00936 13.3761 9.34346 13.7898 9.34346H13.7899C13.8204 9.34346 13.8517 9.34166 13.8828 9.33787C14.3803 9.27869 14.6215 8.91315 14.5997 8.25155C14.6077 7.56104 14.2463 6.77714 13.6317 6.15273C13.0149 5.5264 12.2715 5.17367 11.5953 5.19Z" fill="#7F40BD"/>
</g>
<defs>
<clipPath id="clip0">
<rect width="20" height="20" fill="white"/>
</clipPath>
</defs>
</svg>
