<svg width="51" height="50" viewBox="0 0 51 50" fill="none" xmlns="http://www.w3.org/2000/svg">
<path d="M40.0133 23.5375V1.52543C40.0133 0.682257 39.3385 0 38.5053 0C38.1803 0 2.4716 0 1.50799 0C0.674455 0 0 0.682257 0 1.52543V35.8304C0 36.6728 0.674455 37.3559 1.50799 37.3559H23.4503C23.8596 44.3976 29.6524 50 36.7147 50C44.0406 50 50.0012 43.9704 50.0012 36.5598C50.0012 30.2995 45.7485 25.0255 40.0133 23.5375ZM36.7147 46.9491C31.0467 46.9491 26.4434 42.2849 26.4434 36.5598C26.4434 30.6437 31.3309 25.9871 36.9974 26.1735C42.5368 26.3275 46.9852 30.9296 46.9852 36.5598C46.9852 42.2883 42.3777 46.9491 36.7147 46.9491ZM3.01597 3.05086H13.4643V16.3854C13.4643 17.594 14.7957 18.3264 15.799 17.6615L20.007 14.8742L24.2144 17.6615C25.2154 18.3245 26.5487 17.5986 26.5487 16.3854V3.05086H36.9974V23.1215C30.328 22.9779 24.6954 27.8525 23.6143 34.305H3.01597V3.05086ZM23.5327 13.5633L20.8326 11.7743C20.3305 11.4417 19.6816 11.4425 19.1808 11.7743L16.4803 13.5633V3.05086H23.5327V13.5633Z" fill="#BDBDBD"/>
<path d="M40.8327 32.6435C35.9513 37.5809 40.3581 33.1247 35.038 38.5063C32.7396 36.1813 33.7818 37.2344 32.3959 35.8325C30.8872 34.3066 28.8001 36.5112 30.2013 37.9286L33.9714 41.742C34.5581 42.3355 35.5145 42.3394 36.1047 41.742L42.9659 34.8014C44.374 33.3751 42.2449 31.2176 40.8327 32.6435Z" fill="#BDBDBD"/>
</svg>
