<svg width="24" height="25" viewBox="0 0 24 25" fill="none" xmlns="http://www.w3.org/2000/svg">
<g clip-path="url(#clip0)">
<path d="M22.8 1.60488H20V0.404883C20 0.183683 19.8212 0.00488281 19.6 0.00488281H16.8C16.5788 0.00488281 16.4 0.183683 16.4 0.404883V1.60488H7.59999V0.404883C7.59999 0.183683 7.42118 0.00488281 7.19998 0.00488281H4.39998C4.17878 0.00488281 3.99998 0.183683 3.99998 0.404883V1.60488H1.19998C0.978785 1.60488 0.799985 1.78368 0.799985 2.00488V6.40488V23.6049C0.799985 23.8261 0.978785 24.0049 1.19998 24.0049H22.8C23.0212 24.0049 23.2 23.8261 23.2 23.6049V6.40488V2.00488C23.2 1.78368 23.0212 1.60488 22.8 1.60488ZM17.2 0.804883H19.2V2.00488V3.20488H17.2V2.00488V0.804883ZM4.79998 0.804883H6.79998V2.00488V3.20488H4.79998V2.00488V0.804883ZM1.59998 2.40488H3.99998V3.60488C3.99998 3.82608 4.17878 4.00488 4.39998 4.00488H7.19998C7.42118 4.00488 7.59999 3.82608 7.59999 3.60488V2.40488H16.4V3.60488C16.4 3.82608 16.5788 4.00488 16.8 4.00488H19.6C19.8212 4.00488 20 3.82608 20 3.60488V2.40488H22.4V6.00488H1.59998V2.40488ZM1.59998 23.2049V6.80488H22.4V23.2049H1.59998Z" fill="#BDBDBD"/>
<path d="M15.2 9.20508H12.4H11.6H8.79998H7.99998H4.39998V12.8051V13.6051V16.4051V17.2051V20.8051H7.99998H8.79998H11.6H12.4H15.2H16H19.6V17.2051V16.4051V13.6051V12.8051V9.20508H16H15.2ZM12.4 10.0051H15.2V12.8051H12.4V10.0051ZM15.2 16.4051H12.4V13.6051H15.2V16.4051ZM8.79998 13.6051H11.6V16.4051H8.79998V13.6051ZM8.79998 10.0051H11.6V12.8051H8.79998V10.0051ZM5.19998 10.0051H7.99998V12.8051H5.19998V10.0051ZM5.19998 13.6051H7.99998V16.4051H5.19998V13.6051ZM7.99998 20.0051H5.19998V17.2051H7.99998V20.0051ZM11.6 20.0051H8.79998V17.2051H11.6V20.0051ZM15.2 20.0051H12.4V17.2051H15.2V20.0051ZM18.8 20.0051H16V17.2051H18.8V20.0051ZM18.8 16.4051H16V13.6051H18.8V16.4051ZM18.8 10.0051V12.8051H16V10.0051H18.8Z" fill="#BDBDBD"/>
</g>
<defs>
<clipPath id="clip0">
<rect width="24" height="24" fill="white" transform="translate(-1.52588e-05 0.00488281)"/>
</clipPath>
</defs>
</svg>
