<svg width="24" height="24" viewBox="0 0 24 24" fill="none" xmlns="http://www.w3.org/2000/svg">
<path d="M23.042 7.32891C21.7767 4.37891 19.6265 2.23346 16.6519 0.964797C15.1651 0.330718 13.6075 0.00683594 11.9803 0.00683594C10.3533 0.00683594 8.80718 0.32766 7.32208 0.964797C4.37208 2.23009 2.21235 4.37417 0.944784 7.32891C0.309608 8.80923 0 10.3601 0 11.9871C0 13.6144 0.309608 15.1781 0.944784 16.6587C2.21235 19.6135 4.37235 21.7704 7.32208 23.036C8.80745 23.6731 10.3533 23.9937 11.9803 23.9937C13.6073 23.9937 15.1651 23.6698 16.6516 23.036C19.6263 21.7673 21.7765 19.6084 23.0421 16.6587C23.6792 15.1733 24 13.6144 24 11.9871C24 10.3601 23.6795 8.81425 23.042 7.32891ZM21.1264 17.2886C20.1844 18.9041 18.8939 20.1857 17.2686 21.1333C15.6531 22.0753 13.883 22.5503 11.9805 22.5503C10.5504 22.5503 9.18565 22.2749 7.88643 21.7105C6.58726 21.1464 5.46553 20.4049 4.52718 19.4668C3.58882 18.5284 2.84196 17.3958 2.28349 16.0944C1.72667 14.7977 1.45682 13.4176 1.45682 11.9871C1.45682 10.0844 1.92431 8.32327 2.86102 6.71225C3.80106 5.09535 5.09184 3.81237 6.70569 2.86754C8.31925 1.92276 10.0778 1.45021 11.9803 1.45021C13.883 1.45021 15.6528 1.92554 17.2683 2.86754C18.8936 3.81515 20.1814 5.09809 21.1262 6.71221C22.0709 8.32605 22.5432 10.0844 22.5432 11.9871C22.5432 13.8899 22.074 15.663 21.1264 17.2886Z" fill="#BDBDBD"/>
<path d="M12.7414 11.8816V5.08443C12.7414 4.67769 12.387 4.34961 11.9802 4.34961C11.5998 4.34961 11.2586 4.67769 11.2586 5.08443V11.9866C11.2586 11.9998 11.2849 12.0524 11.2849 12.0916C11.2586 12.3278 11.3244 12.5247 11.4817 12.6823L15.4053 16.6056C15.6679 16.8682 16.1533 16.8682 16.4156 16.6056C16.7174 16.3039 16.6975 15.866 16.4156 15.5822L12.7414 11.8816Z" fill="#BDBDBD"/>
</svg>
