<svg width="68" height="64" viewBox="0 0 68 64" fill="none" xmlns="http://www.w3.org/2000/svg">
<path d="M16.4496 8.95432H14.033C14.3965 6.42139 15.8845 6.29414 16.5693 6.23552C17.2534 6.17689 17.7771 5.63713 17.7771 4.99062V1.24992C17.7771 0.906292 17.6267 0.577661 17.3614 0.341531C17.096 0.105402 16.7388 -0.0169754 16.3745 0.00189999C12.1763 0.224154 7.17188 2.21919 7.17188 10.4616V16.9667C7.17188 18.0526 8.11046 18.936 9.2642 18.936H16.4498C17.6035 18.936 18.5421 18.0525 18.542 16.9666V10.9236C18.542 9.83771 17.6034 8.95432 16.4496 8.95432ZM15.8858 16.4358H9.82813V10.4616C9.82813 4.71024 12.5456 3.10396 15.1208 2.65057V3.96485C13.3423 4.47436 11.2954 5.97914 11.2954 10.2043C11.2954 10.8947 11.89 11.4544 12.6236 11.4544H15.8858V16.4358Z" fill="#EB0028"/>
<path d="M30.0279 8.95432H27.6111C27.9746 6.42139 29.4626 6.29414 30.1474 6.23552C30.8315 6.17689 31.3552 5.63713 31.3552 4.99062V1.24992C31.3552 0.906292 31.2049 0.577661 30.9395 0.341531C30.6742 0.105402 30.3166 -0.0169754 29.9526 0.00189999C25.7544 0.224154 20.75 2.21919 20.75 10.4616V16.9667C20.75 18.0526 21.6886 18.936 22.8423 18.936H30.0279C31.1816 18.936 32.1203 18.0525 32.1202 16.9665V10.9236C32.1202 9.83771 31.1816 8.95432 30.0279 8.95432ZM29.464 16.436H23.4063V10.4616C23.4063 4.71024 26.1237 3.10396 28.699 2.65057V3.96485C26.9205 4.47436 24.8736 5.97914 24.8736 10.2043C24.8736 10.8947 25.4682 11.4544 26.2017 11.4544H29.464V16.436Z" fill="#EB0028"/>
<path d="M37.8609 10.0992C37.6138 9.86666 37.2712 9.73291 36.9219 9.73291C36.5726 9.73291 36.2299 9.86666 35.9829 10.0992C35.7359 10.3317 35.5938 10.6542 35.5938 10.9829C35.5938 11.3117 35.7359 11.6342 35.9829 11.8667C36.2299 12.0992 36.5726 12.233 36.9219 12.233C37.2712 12.233 37.6138 12.0992 37.8609 11.8667C38.1079 11.6342 38.25 11.3117 38.25 10.9829C38.25 10.6542 38.1079 10.3317 37.8609 10.0992Z" fill="#EB0028"/>
<path d="M44.3948 9.73242H42.7213C41.9877 9.73242 41.3931 10.2921 41.3931 10.9824C41.3931 11.6728 41.9877 12.2325 42.7213 12.2325H44.3948C55.9461 12.2325 65.3438 21.0775 65.3438 31.9495C65.3438 41.2286 58.3514 49.3438 48.7174 51.2455C48.1023 51.367 47.6619 51.8775 47.6619 52.4688V59.732L39.4814 52.0326C39.2324 51.7982 38.8945 51.6665 38.5423 51.6665H23.6052C12.0539 51.6665 2.65625 42.8214 2.65625 31.9495C2.65625 28.5988 3.56509 25.2901 5.28461 22.3808C5.64134 21.7775 5.41065 21.0164 4.7697 20.6808C4.12861 20.345 3.31991 20.5621 2.96345 21.1654C1.02465 24.4453 0 28.1744 0 31.9495C0 44.2001 10.5891 54.1665 23.6052 54.1665H37.9922L48.0509 63.6337C48.305 63.8728 48.6446 63.9998 48.9903 63.9998C49.1613 63.9998 49.334 63.9687 49.4983 63.9046C49.9945 63.7112 50.3181 63.2554 50.3181 62.7498V53.4595C55.1237 52.2875 59.4689 49.6795 62.6441 46.0415C66.0979 42.0843 68 37.0797 68 31.9495C68 19.699 57.4109 9.73255 44.3948 9.73242Z" fill="#EB0028"/>
<path d="M50.345 22.1865H17.6562C16.9227 22.1865 16.3281 22.7462 16.3281 23.4365C16.3281 24.1269 16.9227 24.6866 17.6562 24.6866H50.3449C51.0784 24.6866 51.6731 24.1269 51.6731 23.4365C51.6731 22.7462 51.0785 22.1865 50.345 22.1865Z" fill="#EB0028"/>
<path d="M50.345 28.853H17.6562C16.9227 28.853 16.3281 29.4127 16.3281 30.1031C16.3281 30.7934 16.9227 31.3531 17.6562 31.3531H50.3449C51.0784 31.3531 51.6731 30.7934 51.6731 30.1031C51.6731 29.4127 51.0785 28.853 50.345 28.853Z" fill="#EB0028"/>
<path d="M50.345 35.5195H17.6562C16.9227 35.5195 16.3281 36.0793 16.3281 36.7696C16.3281 37.4598 16.9227 38.0196 17.6562 38.0196H50.3449C51.0784 38.0196 51.6731 37.4598 51.6731 36.7696C51.6731 36.0793 51.0785 35.5195 50.345 35.5195Z" fill="#EB0028"/>
<path d="M50.3439 42.1865H32.9199C32.1864 42.1865 31.5918 42.7463 31.5918 43.4365C31.5918 44.1268 32.1864 44.6866 32.9199 44.6866H50.3439C51.0774 44.6866 51.672 44.1268 51.672 43.4365C51.672 42.7463 51.0774 42.1865 50.3439 42.1865Z" fill="#EB0028"/>
<path d="M25.4472 42.1865H25.4258C24.6923 42.1865 24.0977 42.7463 24.0977 43.4365C24.0977 44.1268 24.6923 44.6866 25.4258 44.6866H25.4472C26.1807 44.6866 26.7753 44.1268 26.7753 43.4365C26.7753 42.7463 26.1807 42.1865 25.4472 42.1865Z" fill="#EB0028"/>
</svg>
