<svg width="16" height="16" viewBox="0 0 16 16" fill="none" xmlns="http://www.w3.org/2000/svg">
<path fill-rule="evenodd" clip-rule="evenodd" d="M7.99993 13.7147C11.1558 13.7147 13.7142 11.1563 13.7142 8.00042C13.7142 4.84451 11.1558 2.28613 7.99993 2.28613C4.84402 2.28613 2.28564 4.84451 2.28564 8.00042C2.28564 11.1563 4.84402 13.7147 7.99993 13.7147ZM8.02226 4.57171C7.55352 4.57171 7.17793 4.9599 7.19338 5.42839L7.28443 8.18818C7.29756 8.5862 7.62402 8.90207 8.02226 8.90207C8.42051 8.90207 8.74697 8.5862 8.7601 8.18818L8.85115 5.42839C8.8666 4.9599 8.49101 4.57171 8.02226 4.57171ZM8.02224 11.1699C7.44634 11.1699 7.11152 10.8708 7.11152 10.3574C7.11152 9.83957 7.44634 9.54046 8.02224 9.54046C8.59813 9.54046 8.93742 9.83957 8.93742 10.3574C8.93742 10.8708 8.59813 11.1699 8.02224 11.1699Z" fill="#EB0028"/>
</svg>
