<svg width="24" height="24" viewBox="0 0 24 24" fill="none" xmlns="http://www.w3.org/2000/svg">
<path fill-rule="evenodd" clip-rule="evenodd" d="M12 20.5716C16.7339 20.5716 20.5714 16.734 20.5714 12.0001C20.5714 7.26627 16.7339 3.42871 12 3.42871C7.26613 3.42871 3.42857 7.26627 3.42857 12.0001C3.42857 16.734 7.26613 20.5716 12 20.5716ZM11.7813 6.85732C11.2161 6.85732 10.7632 7.32539 10.7818 7.89029L10.9302 12.3858C10.9479 12.925 11.3902 13.3529 11.9296 13.3529H12.1374C12.6768 13.3529 13.119 12.925 13.1368 12.3858L13.2851 7.89029C13.3038 7.32539 12.8509 6.85732 12.2857 6.85732H11.7813ZM12.0335 16.7546C11.1696 16.7546 10.6674 16.306 10.6674 15.5359C10.6674 14.7591 11.1696 14.3104 12.0335 14.3104C12.8973 14.3104 13.4063 14.7591 13.4063 15.5359C13.4063 16.306 12.8973 16.7546 12.0335 16.7546Z" fill="#BDBDBD"/>
</svg>
