<svg width="24" height="25" viewBox="0 0 24 25" fill="none" xmlns="http://www.w3.org/2000/svg">
<g clip-path="url(#clip0)">
<path d="M22.7329 5.76172L21.2008 21.1465H2.79881L1.56445 6.05947L11.9998 11.9021L22.7329 5.76172Z" fill="#F2F2F2"/>
<path d="M22.2132 2.86328L11.9998 12.4575L1.78644 2.86328H11.9998H22.2132Z" fill="#F2F2F2"/>
<path d="M2.79882 7.29321V21.1459H1.13133C0.506629 21.1459 -0.000183105 20.6391 -0.000183105 20.0144V5.25293L1.82794 5.30276L2.79882 7.29321Z" fill="#F14336"/>
<path d="M23.9998 5.25288V20.0144C23.9998 20.6391 23.493 21.1459 22.8677 21.1459H21.2008V7.29316L22.1239 5.1123L23.9998 5.25288Z" fill="#D32E2A"/>
<path d="M23.9998 3.9948V5.25316L21.2008 7.29344L11.9998 13.9997L2.79882 7.29344L-0.000183105 5.25316V3.9948C-0.000183105 3.37009 0.506629 2.86328 1.13133 2.86328H1.78641L11.9998 10.3075L22.2132 2.86328H22.8677C23.493 2.86328 23.9998 3.37005 23.9998 3.9948Z" fill="#F14336"/>
<path d="M2.79882 7.29321L-0.000183105 6.85924V5.25293L2.79882 7.29321Z" fill="#D32E2A"/>
</g>
<defs>
<clipPath id="clip0">
<rect width="24" height="24" fill="white" transform="translate(-0.000183105 0.00488281)"/>
</clipPath>
</defs>
</svg>
