<svg width="75" height="76" viewBox="0 0 75 76" fill="none" xmlns="http://www.w3.org/2000/svg">
<path d="M72.4887 32.7054C72.8679 32.9434 73.3444 32.9544 73.7339 32.7352C74.124 32.5154 74.3652 32.1001 74.3652 31.6484V24.188C74.3652 23.7575 74.1456 23.358 73.7837 23.131L38.1417 0.749714C37.745 0.501397 37.2433 0.501397 36.8466 0.749714L20.2876 11.1486V8.02375C20.2876 7.33708 19.7373 6.78034 19.0586 6.78034H14.1424C13.4637 6.78034 12.9134 7.33708 12.9134 8.02375V15.7792L1.20456 23.131C0.842689 23.358 0.623047 23.7575 0.623047 24.188V31.6484C0.623047 32.1001 0.864893 32.5154 1.25437 32.7352C1.64384 32.9544 2.12093 32.9434 2.49961 32.7054L5.53919 30.7966V73.9241C5.53919 74.6108 6.0895 75.1676 6.76823 75.1676H68.22C68.8988 75.1676 69.4491 74.6108 69.4491 73.9241V61.0463C72.0116 60.1332 73.8683 57.8668 74.28 55.1505C74.6911 52.4335 73.5899 49.7087 71.4156 48.0616C71.2998 47.9748 71.1822 47.9074 71.0652 47.8291C72.6255 44.5415 71.9792 40.6163 69.4491 38.0184V30.7966L72.4887 32.7054ZM15.3715 9.26715H17.8296V12.6902L15.3715 14.2335V9.26715ZM3.08112 24.8807L37.4941 3.27052L71.9072 24.8795V29.4105L38.1417 8.21014C37.745 7.96182 37.2433 7.96182 36.8466 8.21014L3.08112 29.4105V24.8807ZM15.3715 72.6807V40.3522H30.1199V72.6807H15.3715ZM54.7006 72.6807V55.2731H57.1587V72.6807H54.7006ZM66.991 72.6807H59.6168V61.4901H66.991V72.6807ZM71.9072 54.0297C71.9029 56.3981 70.2526 58.4369 67.9584 58.908C67.6403 58.9742 67.3157 59.0063 66.991 59.0033H59.6168V54.0297C59.6168 53.343 59.0665 52.7863 58.3877 52.7863H53.4716C52.7929 52.7863 52.2426 53.343 52.2426 54.0297V59.0033H43.6393C41.6031 59.0033 39.9522 57.3337 39.9522 55.2731C39.957 54.6113 40.1376 53.9635 40.4761 53.3971C41.6307 54.5949 43.2144 55.2713 44.8683 55.2731C45.0202 55.2761 45.1714 55.2603 45.3196 55.2257C45.9582 55.0709 46.3632 54.4353 46.2396 53.7826C46.1154 53.1299 45.5063 52.691 44.8563 52.7863C42.8244 52.7796 41.1812 51.1118 41.1812 49.0561C41.1812 48.8806 41.1932 48.7052 41.2172 48.5315C41.3853 47.3136 42.142 46.2602 43.2348 45.7217C43.4953 45.5857 43.7713 45.4843 44.057 45.4206H44.0684C44.941 45.2257 45.8537 45.3586 46.6369 45.7934C47.2292 46.1303 47.9787 45.9178 48.3118 45.3192C48.6443 44.7206 48.4348 43.9616 47.8425 43.6253C46.9567 43.1341 45.9648 42.8718 44.9542 42.8615C44.9248 42.8615 44.899 42.8439 44.8683 42.8439C44.7531 42.8439 44.6421 42.8731 44.5281 42.8791C44.3192 42.8901 44.1128 42.9113 43.9136 42.9423C43.8271 42.9562 43.7389 42.9514 43.6543 42.9684C43.6543 42.9265 43.6453 42.8864 43.6453 42.8439C43.6501 40.4749 45.3016 38.4361 47.5971 37.9662C47.9121 37.8982 48.2332 37.8642 48.5555 37.8654C49.6027 37.8624 50.6229 38.2012 51.4648 38.8308C52.0115 39.2376 52.7809 39.1192 53.1835 38.5661C53.5862 38.013 53.4692 37.2346 52.9225 36.8272C51.6953 35.9141 50.2172 35.4114 48.6947 35.3902H48.6797C48.6869 35.355 48.7019 35.3228 48.7091 35.2894C48.7841 34.9494 48.8867 34.6167 49.0163 34.2943C49.0656 34.1704 49.1322 34.063 49.1874 33.9464C49.2918 33.7206 49.4094 33.5014 49.5402 33.2901C49.6189 33.1656 49.7083 33.0509 49.7959 32.9343C49.9303 32.7491 50.0756 32.5713 50.2298 32.4019C50.333 32.2914 50.441 32.1869 50.5514 32.0837C50.7159 31.9307 50.8887 31.7862 51.0687 31.6521C51.1918 31.5616 51.3148 31.4736 51.4378 31.391C51.6334 31.269 51.8357 31.1579 52.0433 31.0577C52.1736 30.9945 52.3014 30.9259 52.4382 30.8713C52.6764 30.7796 52.9201 30.7031 53.1679 30.6412C53.291 30.6102 53.4068 30.5671 53.537 30.5422C54.3256 30.3747 55.1393 30.3704 55.9297 30.5295C56.0599 30.5556 56.1757 30.6114 56.2987 30.6467C56.5622 30.7116 56.8214 30.7948 57.0741 30.895C57.2091 30.9533 57.3273 31.0383 57.4564 31.1038C57.6832 31.2119 57.9035 31.3327 58.1165 31.4669C58.2389 31.5543 58.3523 31.6672 58.4736 31.7632C58.6656 31.9058 58.8498 32.0601 59.0245 32.224C59.1415 32.3412 59.2321 32.4802 59.3389 32.6059C59.4944 32.7759 59.6396 32.9544 59.7752 33.1407C59.8724 33.2846 59.9402 33.448 60.0213 33.601C60.1389 33.7916 60.2451 33.9889 60.3393 34.1923C60.4095 34.358 60.4479 34.5396 60.5032 34.7138C60.5806 34.9233 60.646 35.137 60.6994 35.3537C60.7378 35.5341 60.739 35.7271 60.76 35.9123C60.7966 36.1412 60.8194 36.3719 60.8284 36.6038C60.823 36.6488 60.8194 36.6937 60.8188 36.7392C60.8116 37.8824 60.4815 39.0002 59.8676 39.9606C59.5034 40.5429 59.675 41.3139 60.2505 41.6825C60.826 42.0504 61.5882 41.8774 61.9518 41.2951C62.6042 40.2581 63.0296 39.0918 63.1983 37.8745C63.2337 37.8745 63.2649 37.8654 63.3003 37.8654C65.4193 37.8667 67.3877 38.9716 68.5099 40.79C69.6321 42.6083 69.7491 44.8833 68.8202 46.8097C68.7067 46.7805 68.5927 46.7435 68.4805 46.7235C67.9908 46.6184 67.4915 46.5668 66.991 46.5693C64.6644 46.5602 62.4715 47.6706 61.0841 49.5612C60.6772 50.1107 60.787 50.8896 61.3301 51.3019C61.8732 51.7141 62.6438 51.6024 63.0506 51.0529C63.9754 49.7913 65.4385 49.0494 66.991 49.0561C67.3301 49.0536 67.6685 49.0889 68.0004 49.1605C68.3203 49.2212 68.6305 49.3244 68.9246 49.4665C69.2864 49.6146 69.6273 49.8107 69.9382 50.0499C71.1732 50.9922 71.9017 52.4645 71.9072 54.0297ZM66.991 29.2563V36.2195C66.9382 36.1934 66.8818 36.1758 66.829 36.1509C66.6285 36.0604 66.4257 35.9742 66.2145 35.902C66.1088 35.8625 66.0014 35.8291 65.8934 35.7939C65.7254 35.7393 65.5543 35.6907 65.3821 35.6476C65.2519 35.6136 65.1216 35.5814 64.9902 35.5541C64.8378 35.5231 64.683 35.5007 64.5293 35.4782C64.3757 35.4557 64.2467 35.4321 64.1038 35.4187C63.841 35.3926 63.5733 35.3786 63.3039 35.3786H63.2721C63.2535 35.3786 63.2349 35.3786 63.2169 35.3786C63.2031 35.2845 63.1797 35.1922 63.1641 35.0975C63.1431 34.9737 63.1221 34.8601 63.0963 34.7436C63.062 34.5857 63.02 34.4315 62.9732 34.2785C62.9426 34.168 62.9144 34.0557 62.8802 33.9476C62.8286 33.7873 62.768 33.6307 62.708 33.4741C62.6696 33.3781 62.6378 33.2798 62.5976 33.1857C62.5201 33.0054 62.4337 32.8311 62.3455 32.6581C62.3119 32.5913 62.2825 32.5227 62.2483 32.4583C62.1253 32.2216 61.9812 31.9921 61.8342 31.7705C61.8048 31.7243 61.7688 31.6836 61.7382 31.6387C61.6152 31.4632 61.4921 31.2914 61.3595 31.1263C61.3007 31.0528 61.2365 30.9848 61.1741 30.9138C61.0625 30.7833 60.949 30.6539 60.8302 30.5295C60.7564 30.4548 60.679 30.3838 60.6028 30.3109C60.4869 30.1998 60.3705 30.0893 60.2475 29.9849C60.1635 29.9126 60.0777 29.8458 59.9919 29.7772C59.8688 29.6801 59.7458 29.586 59.6228 29.4949C59.5298 29.4294 59.4361 29.3705 59.3401 29.3049C59.2177 29.2217 59.0821 29.1404 58.9495 29.0633C58.8498 29.0062 58.749 28.9515 58.647 28.8981C58.5108 28.8259 58.3721 28.7591 58.2317 28.6941C58.1273 28.6468 58.0241 28.6 57.9185 28.5563C57.772 28.4968 57.6232 28.4434 57.4732 28.3924C57.3675 28.3547 57.2631 28.3165 57.1551 28.2837C56.9967 28.237 56.8358 28.1981 56.6744 28.1598C56.57 28.135 56.4668 28.1076 56.3612 28.0864C56.1805 28.05 55.9927 28.0251 55.8133 28.0002C55.722 27.9892 55.6338 27.9716 55.5414 27.9631C55.2659 27.9346 54.9845 27.9182 54.7006 27.9182C54.4168 27.9182 54.1281 27.9346 53.8407 27.9619C53.7471 27.9716 53.6558 27.9905 53.564 28.0032C53.378 28.0275 53.1949 28.0512 53.0107 28.0888C52.9027 28.1101 52.7983 28.141 52.6927 28.1659C52.5288 28.2054 52.3668 28.2442 52.2012 28.2904C52.0913 28.3238 51.9845 28.3651 51.8765 28.4033C51.7265 28.4555 51.5764 28.5077 51.43 28.5684C51.3208 28.6146 51.2152 28.6656 51.1083 28.7154C50.9691 28.7803 50.8305 28.8398 50.6955 28.9169C50.5886 28.974 50.4866 29.0347 50.3834 29.096C50.2526 29.1731 50.1236 29.2503 49.9981 29.3322C49.8979 29.399 49.8007 29.4688 49.7023 29.5399C49.5793 29.6279 49.4562 29.7165 49.347 29.8094C49.2522 29.8853 49.1604 29.9636 49.0692 30.0432C48.9581 30.1421 48.8483 30.2429 48.7409 30.3455C48.6539 30.4299 48.5693 30.5161 48.4852 30.6042C48.3832 30.7122 48.2854 30.8215 48.1882 30.935C48.1096 31.0279 48.031 31.1214 47.9559 31.2174C47.8635 31.3339 47.7765 31.4535 47.6913 31.575C47.6205 31.6745 47.5503 31.7753 47.4837 31.8773C47.4026 32.0018 47.3276 32.1262 47.2538 32.2616C47.1926 32.3673 47.1314 32.4741 47.0732 32.5834C47.0048 32.717 46.9417 32.8536 46.8793 32.9902C46.8277 33.1019 46.7749 33.2142 46.7281 33.3284C46.6717 33.4692 46.6225 33.6143 46.5733 33.7588C46.5325 33.8754 46.4881 33.9913 46.4503 34.1103C46.4046 34.2597 46.3704 34.4139 46.3332 34.5669C46.305 34.6914 46.272 34.8019 46.2486 34.9227C46.2168 35.0854 46.1958 35.2517 46.1736 35.4199C46.1574 35.5353 46.1358 35.6488 46.1244 35.7654V35.7878C46.0728 35.8067 46.026 35.8352 45.9744 35.854C45.8159 35.9147 45.6659 35.9882 45.5135 36.0592C45.2974 36.157 45.085 36.259 44.881 36.3774C44.7333 36.4642 44.5929 36.5589 44.4519 36.656C44.2598 36.7799 44.0744 36.9207 43.8962 37.0671C43.7647 37.177 43.6393 37.2899 43.5151 37.4083C43.3483 37.5673 43.191 37.7325 43.0398 37.9055C42.9276 38.03 42.8184 38.1538 42.7151 38.2959C42.5741 38.4823 42.4463 38.6778 42.3221 38.8763C42.2344 39.0172 42.145 39.1562 42.0664 39.3031C41.9536 39.5199 41.8516 39.7421 41.7616 39.9692C41.6997 40.1161 41.6385 40.2581 41.5821 40.4081C41.4975 40.6667 41.4273 40.9302 41.3721 41.1968C41.3421 41.3297 41.3007 41.4578 41.2773 41.592C41.1398 42.3807 41.1332 43.1869 41.2575 43.978V44.0169C41.072 44.1517 40.8944 44.2974 40.7252 44.4534C40.7084 44.468 40.6909 44.482 40.6747 44.4977C40.4881 44.672 40.3123 44.8572 40.149 45.0539C40.0926 45.1219 40.0434 45.1941 39.9906 45.2639C39.8832 45.4042 39.7788 45.5463 39.6846 45.6938C39.6305 45.78 39.5813 45.868 39.5309 45.9567C39.4499 46.0993 39.3737 46.2438 39.3035 46.3926C39.2591 46.4873 39.2183 46.5832 39.1805 46.6804C39.118 46.8328 39.0634 46.9894 39.013 47.1491C38.9824 47.2456 38.9506 47.3415 38.9248 47.4399C38.878 47.6166 38.8438 47.7957 38.8132 47.976C38.7982 48.0616 38.7784 48.146 38.7676 48.2328C38.6854 48.8163 38.6926 49.4082 38.7898 49.9886C38.803 50.0785 38.8228 50.1665 38.8402 50.2552C38.8864 50.4913 38.9464 50.7251 39.0196 50.9552C39.0364 51.0074 39.043 51.062 39.0598 51.1142C39.0364 51.1404 39.0208 51.1713 38.9974 51.1974C38.7742 51.4512 38.5719 51.7232 38.3925 52.0104C38.3841 52.0243 38.3781 52.0377 38.3703 52.0517C38.2047 52.3297 38.0612 52.6205 37.9418 52.9223C37.9184 52.9794 37.8938 53.0352 37.8728 53.0923C37.7594 53.4001 37.6712 53.7164 37.6088 54.0388C37.595 54.1032 37.5865 54.1627 37.5751 54.2325C37.5199 54.5767 37.4929 54.9246 37.4941 55.2731C37.4983 58.7052 40.2475 61.4865 43.6393 61.4901H52.2426V72.6807H32.578V39.1088C32.578 38.4222 32.0277 37.8654 31.3489 37.8654H14.1424C13.4637 37.8654 12.9134 38.4222 12.9134 39.1088V72.6807H7.99726V29.2563L37.4941 10.7297L66.991 29.2563Z" fill="#EB0028"/>
</svg>
