<svg width="24" height="25" viewBox="0 0 24 25" fill="none" xmlns="http://www.w3.org/2000/svg">
<g clip-path="url(#clip0)">
<path d="M11.6586 0.0109912C6.89031 0.178299 2.92906 3.89843 2.47142 8.64702C2.37792 9.59673 2.43205 10.5169 2.59936 11.3978C2.59936 11.3978 2.61412 11.5011 2.66333 11.6979C2.81096 12.3573 3.03239 12.997 3.30796 13.5974C4.26752 15.8708 6.4868 19.6746 11.4667 23.813C11.7718 24.0688 12.2196 24.0688 12.5296 23.813C17.5094 19.6795 19.7287 15.8757 20.6932 13.5924C20.9737 12.9921 21.1902 12.3573 21.3378 11.693C21.3821 11.5011 21.4018 11.3928 21.4018 11.3928C21.515 10.8023 21.574 10.1971 21.574 9.57705C21.574 4.174 17.101 -0.18092 11.6586 0.0109912ZM11.9981 14.3404C9.42945 14.3404 7.34795 12.2589 7.34795 9.69023C7.34795 7.12157 9.42945 5.04006 11.9981 5.04006C14.5668 5.04006 16.6483 7.12157 16.6483 9.69023C16.6483 12.2589 14.5668 14.3404 11.9981 14.3404Z" fill="#BDBDBD"/>
</g>
<defs>
<clipPath id="clip0">
<rect width="24" height="24" fill="white" transform="matrix(1 0 0 -1 -6.10352e-05 24.0049)"/>
</clipPath>
</defs>
</svg>
