<svg width="24" height="25" viewBox="0 0 24 25" fill="none" xmlns="http://www.w3.org/2000/svg">
<path fill-rule="evenodd" clip-rule="evenodd" d="M11.9999 24.0049C18.6273 24.0049 23.9999 18.6323 23.9999 12.0049C23.9999 5.37747 18.6273 0.00488281 11.9999 0.00488281C5.37249 0.00488281 -9.15527e-05 5.37747 -9.15527e-05 12.0049C-9.15527e-05 18.6323 5.37249 24.0049 11.9999 24.0049ZM11.9999 23.0448C18.0971 23.0448 23.0399 18.1021 23.0399 12.0048C23.0399 5.90762 18.0971 0.964844 11.9999 0.964844C5.90265 0.964844 0.959869 5.90762 0.959869 12.0048C0.959869 18.1021 5.90265 23.0448 11.9999 23.0448Z" fill="#BDBDBD"/>
<path d="M11.9999 23.3794C9.50168 23.3794 7.10095 22.61 5.05513 21.154C4.94604 21.0762 4.88786 20.9431 4.90531 20.81C4.92277 20.6769 5.01295 20.5634 5.13949 20.5169C8.15477 19.4005 8.64131 18.4944 8.64131 16.7576C8.64131 16.2987 8.53804 16.1482 8.35186 15.8747C8.10531 15.5154 7.76786 15.0231 7.53077 13.7373C7.49586 13.5525 7.46604 13.538 7.30095 13.458C6.86022 13.2456 6.45513 12.9402 6.34895 11.5467C6.34895 10.8718 6.58168 10.4987 6.7744 10.3045C6.73222 10.0645 6.66313 9.65072 6.5984 9.19981C6.26895 7.18017 6.2544 4.70672 9.09513 3.5569C11.5708 2.55326 13.5468 3.10163 14.1671 3.75544C14.6064 3.76926 15.7395 3.88417 16.5279 4.80126C17.7409 6.21217 17.3548 9.4289 17.2224 10.3009C17.4159 10.4907 17.6508 10.8587 17.6508 11.5191C17.5446 12.9402 17.1395 13.2464 16.698 13.458C16.5322 13.538 16.5024 13.5518 16.4682 13.7373C16.2311 15.0231 15.8944 15.5154 15.6479 15.8747C15.4609 16.1474 15.3584 16.2987 15.3584 16.7576C15.3584 18.4944 15.8449 19.4005 18.8602 20.5169C18.9868 20.5634 19.0769 20.6762 19.0944 20.81C19.1119 20.9438 19.0537 21.0762 18.9446 21.154C16.8988 22.61 14.498 23.3794 11.9999 23.3794ZM6.04859 20.9438C7.83913 22.0638 9.88277 22.6522 11.9999 22.6522C14.1169 22.6522 16.1606 22.0638 17.9511 20.9438C15.4246 19.9067 14.6311 18.8609 14.6311 16.7584C14.6311 16.074 14.8333 15.778 15.0479 15.4645C15.2689 15.1416 15.5439 14.7402 15.754 13.6056C15.8551 13.0573 16.1729 12.9045 16.3831 12.8034C16.6093 12.6951 16.842 12.5831 16.9242 11.4922C16.9235 10.9365 16.674 10.7853 16.6639 10.7794C16.53 10.7024 16.4435 10.5402 16.4719 10.3889C16.6522 9.42235 16.9489 6.40781 15.9766 5.27544C15.3126 4.50308 14.266 4.48199 14.0668 4.48999C14.0333 4.48708 14.0006 4.48635 13.9693 4.47835C13.8748 4.45435 13.7148 4.37217 13.666 4.28781C13.4682 3.9489 11.7453 3.26744 9.36786 4.22963C7.01804 5.1809 7.01295 7.22017 7.31768 9.08926C7.41804 9.78526 7.52786 10.3867 7.52859 10.3896C7.5584 10.5533 7.47331 10.7162 7.32277 10.7853C7.32495 10.7853 7.07622 10.9373 7.07622 11.5184C7.15768 12.5809 7.39113 12.6936 7.61658 12.802C7.82677 12.9031 8.14531 13.0558 8.2464 13.6042C8.45586 14.7387 8.73077 15.1402 8.95186 15.4631C9.16713 15.7765 9.36931 16.0725 9.36931 16.7569C9.36931 18.8616 8.57586 19.9074 6.04859 20.9438Z" fill="#BDBDBD"/>
</svg>
