<svg width="24" height="24" viewBox="0 0 24 24" fill="none" xmlns="http://www.w3.org/2000/svg">
<path d="M21.0539 20.046C21.3321 20.3242 21.3321 20.7754 21.0539 21.0536C20.7756 21.3319 20.3245 21.3319 20.0462 21.0536L16.6262 17.6336C16.348 17.3554 16.348 16.9042 16.6262 16.626C16.9045 16.3477 17.3556 16.3477 17.6339 16.626L21.0539 20.046ZM10.29 17.8423C6.11892 17.8423 2.73755 14.4609 2.73755 10.2898C2.73755 6.11867 6.11892 2.7373 10.29 2.7373C14.4612 2.7373 17.8425 6.11867 17.8425 10.2898C17.8425 14.4609 14.4612 17.8423 10.29 17.8423ZM10.29 16.4173C13.6742 16.4173 16.4175 13.6739 16.4175 10.2898C16.4175 6.90568 13.6742 4.1623 10.29 4.1623C6.90592 4.1623 4.16255 6.90568 4.16255 10.2898C4.16255 13.6739 6.90592 16.4173 10.29 16.4173ZM6.77505 9.7198C6.77505 9.98214 6.56238 10.1948 6.30005 10.1948C6.03771 10.1948 5.82505 9.98214 5.82505 9.7198C5.82505 7.56866 7.5689 5.8248 9.72005 5.8248C9.98238 5.8248 10.195 6.03747 10.195 6.2998C10.195 6.56214 9.98238 6.7748 9.72005 6.7748C8.09357 6.7748 6.77505 8.09333 6.77505 9.7198Z" fill="#3F3356"/>
</svg>
