<svg width="24" height="25" viewBox="0 0 24 25" fill="none" xmlns="http://www.w3.org/2000/svg">
<g clip-path="url(#clip0)">
<path d="M11.9997 0.00721642C5.51496 -0.120646 0.148949 5.02179 0.00088501 11.5061C0.0178052 14.8068 1.47937 17.9347 4.00048 20.0652V23.5049C4.00048 23.781 4.22433 24.0049 4.50045 24.0049C4.59414 24.0049 4.68596 23.9785 4.7654 23.9289L7.55213 22.1881C8.97193 22.7311 10.4796 23.008 11.9997 23.005C18.4845 23.1328 23.8505 17.9904 23.9985 11.5061C23.8505 5.02179 18.4845 -0.120646 11.9997 0.00721642Z" fill="#2196F3"/>
<path d="M19.899 8.20687C19.7502 8.00748 19.4775 7.94781 19.259 8.06686L14.0596 10.9016L10.8249 8.12784C10.6265 7.9578 10.3307 7.96909 10.146 8.15386L4.14656 14.1533C3.95191 14.3491 3.95285 14.6657 4.14872 14.8603C4.30531 15.016 4.54543 15.0505 4.73952 14.9452L9.939 12.1105L13.1767 14.8852C13.375 15.0552 13.6709 15.0439 13.8556 14.8592L19.855 8.85977C20.0298 8.6833 20.0486 8.40522 19.899 8.20687Z" fill="#FAFAFA"/>
</g>
<defs>
<clipPath id="clip0">
<rect width="24" height="24" fill="white" transform="translate(-0.000244141 0.00488281)"/>
</clipPath>
</defs>
</svg>
