<svg width="24" height="25" viewBox="0 0 24 25" fill="none" xmlns="http://www.w3.org/2000/svg">
<path d="M22.0936 5.00488H1.90632C1.40574 5.00488 0.999939 5.43503 0.999939 5.96565V19.0441C0.999939 19.5747 1.40574 20.0049 1.90632 20.0049H22.0936C22.5941 20.0049 22.9999 19.5747 22.9999 19.0441V5.96565C22.9999 5.43503 22.5941 5.00488 22.0936 5.00488ZM1.90632 5.75941H22.0936C22.1787 5.75985 22.2537 5.81895 22.2786 5.90529L11.9999 12.7111L1.72125 5.90529C1.74616 5.81895 1.82114 5.75985 1.90632 5.75941ZM1.71176 6.76545L9.1052 11.6598L1.71176 17.8771V6.76545ZM22.2881 19.0391C22.2881 19.153 22.201 19.2453 22.0936 19.2453H1.90632C1.7989 19.2453 1.71176 19.153 1.71176 19.0391V18.8379L9.74584 12.1075L11.8101 13.4757C11.9261 13.5532 12.0738 13.5532 12.1898 13.4757L14.254 12.1075L22.2881 18.8379V19.0391ZM22.2881 17.8771L14.8757 11.6799L22.2881 6.81072V17.8771Z" fill="#BDBDBD"/>
</svg>
