<svg width="59" height="59" viewBox="0 0 59 59" fill="none" xmlns="http://www.w3.org/2000/svg">
<path d="M48.1316 24.0709C48.1316 24.9249 47.4329 25.6236 46.5789 25.6236H12.4211C11.5671 25.6236 10.8684 24.9249 10.8684 24.0709C10.8684 23.217 11.5671 22.5183 12.4211 22.5183H46.5789C47.4329 22.5183 48.1316 23.217 48.1316 24.0709ZM37.1079 30.2815H12.4211C11.5671 30.2815 10.8684 30.9801 10.8684 31.8341C10.8684 32.688 11.5671 33.3867 12.4211 33.3867H37.1079C37.9618 33.3867 38.6605 32.688 38.6605 31.8341C38.6605 30.9801 37.9618 30.2815 37.1079 30.2815ZM46.5789 14.7551H12.4211C11.5671 14.7551 10.8684 15.4538 10.8684 16.3078C10.8684 17.1617 11.5671 17.8604 12.4211 17.8604H46.5789C47.4329 17.8604 48.1316 17.1617 48.1316 16.3078C48.1316 15.4538 47.4329 14.7551 46.5789 14.7551ZM59 5.43935V42.7025C59 43.5565 58.3013 44.2551 57.4474 44.2551H27.1711L16.6132 54.6578C16.225 55.1236 13.9737 55.7446 13.9737 53.5709V44.2551H1.55263C0.698684 44.2551 0 43.5565 0 42.7025V5.43935C0 4.5854 0.698684 3.88672 1.55263 3.88672H57.4474C58.3013 3.88672 59 4.5854 59 5.43935ZM55.8947 6.99198H3.10526V41.1499H15.5263C16.3803 41.1499 17.0789 41.8486 17.0789 42.7025V49.8446L25.4632 41.6157C25.7737 41.3051 26.1618 41.1499 26.55 41.1499H55.8947V6.99198Z" fill="#EB0028"/>
</svg>
