<svg width="67" height="64" viewBox="0 0 67 64" fill="none" xmlns="http://www.w3.org/2000/svg">
<path d="M6.97791 8.72754C7.74883 8.72754 8.37378 8.0763 8.37378 7.27295C8.37378 6.4696 7.74883 5.81836 6.97791 5.81836C6.20699 5.81836 5.58203 6.4696 5.58203 7.27295C5.58203 8.0763 6.20699 8.72754 6.97791 8.72754Z" fill="#EB0028"/>
<path d="M12.5619 8.72754C13.3328 8.72754 13.9578 8.0763 13.9578 7.27295C13.9578 6.4696 13.3328 5.81836 12.5619 5.81836C11.791 5.81836 11.166 6.4696 11.166 7.27295C11.166 8.0763 11.791 8.72754 12.5619 8.72754Z" fill="#EB0028"/>
<path d="M18.1459 8.72754C18.9168 8.72754 19.5418 8.0763 19.5418 7.27295C19.5418 6.4696 18.9168 5.81836 18.1459 5.81836C17.375 5.81836 16.75 6.4696 16.75 7.27295C16.75 8.0763 17.375 8.72754 18.1459 8.72754Z" fill="#EB0028"/>
<path d="M15.3529 29.0908H46.0613C46.8328 29.0908 47.4572 28.4402 47.4572 27.6362C47.4572 26.8322 46.8328 26.1816 46.0613 26.1816H15.3529C14.5814 26.1816 13.957 26.8322 13.957 27.6362C13.957 28.4402 14.5815 29.0908 15.3529 29.0908Z" fill="#EB0028"/>
<path d="M32.1029 43.6362H15.3529C14.5814 43.6362 13.957 44.2868 13.957 45.0908C13.957 45.8948 14.5814 46.5454 15.3529 46.5454H32.1029C32.8745 46.5454 33.4988 45.8948 33.4988 45.0908C33.4988 44.2868 32.8745 43.6362 32.1029 43.6362Z" fill="#EB0028"/>
<path d="M61.6566 17.4545C61.5757 17.4545 61.4974 17.4757 61.4168 17.4796V5.81822C61.4168 2.60945 58.9113 0 55.8334 0H5.58338C2.50543 0 0 2.60945 0 5.81822V58.1818C0 61.3905 2.50543 64 5.58338 64H55.8334C58.9113 64 61.4168 61.3907 61.4168 58.1818V31.147L65.4352 26.9603C65.4352 26.9603 65.4352 26.9603 65.4352 26.9589C66.4302 25.922 67 24.4873 67 23.0228C67 19.9517 64.6037 17.4545 61.6566 17.4545ZM2.79162 5.81822C2.79162 4.21458 4.04303 2.90918 5.58325 2.90918H55.8332C57.3737 2.90918 58.625 4.21458 58.625 5.81822V11.6364H2.79162V5.81822ZM58.625 58.1818C58.625 59.7854 57.3736 61.0908 55.8334 61.0908H5.58338C4.04303 61.0908 2.79175 59.7854 2.79175 58.1818V14.5455H58.625V18.4482C58.36 18.638 58.1065 18.8468 57.8781 19.0853L42.6905 34.9092H15.3541C14.5826 34.9092 13.9582 35.5598 13.9582 36.3638C13.9582 37.1678 14.5826 37.8184 15.3541 37.8184H40.451L39.1106 44.8056C39.0179 45.2829 39.1624 45.7758 39.4923 46.1195C39.7568 46.3951 40.1139 46.5456 40.4793 46.5456C40.5693 46.5456 40.6619 46.5357 40.7518 46.5173L47.7283 45.0627C48.0009 45.0058 48.249 44.8681 48.4426 44.6649L58.625 34.0558V58.1818ZM46.7686 42.2968L42.2595 43.2372L43.1619 38.5326L55.8327 25.3288L59.4427 29.0907L46.7686 42.2968ZM63.4613 24.9034L61.4166 27.0341L57.8063 23.2719L59.8517 21.1406C60.326 20.6476 60.9831 20.3636 61.6565 20.3636C63.0632 20.3636 64.2082 21.5567 64.2082 23.0227C64.2084 23.7216 63.9357 24.4077 63.4613 24.9034Z" fill="#EB0028"/>
</svg>
