<svg width="24" height="25" viewBox="0 0 24 25" fill="none" xmlns="http://www.w3.org/2000/svg">
<path fill-rule="evenodd" clip-rule="evenodd" d="M4.99991 2.42194C4.99991 1.08704 6.04924 0.00488281 7.34366 0.00488281H17.6562C18.9506 0.00488281 19.9999 1.08704 19.9999 2.42194V21.5878C19.9999 22.9227 18.9506 24.0049 17.6562 24.0049H7.34366C6.04924 24.0049 4.99991 22.9227 4.99991 21.5878V2.42194ZM7.34366 0.971707C6.56701 0.971707 5.93741 1.621 5.93741 2.42194V21.5878C5.93741 22.3888 6.56701 23.0381 7.34366 23.0381H17.6562C18.4328 23.0381 19.0624 22.3888 19.0624 21.5878V2.42194C19.0624 1.621 18.4328 0.971707 17.6562 0.971707H7.34366Z" fill="#EB0028"/>
<path d="M13.9999 19.5049C13.9999 20.3333 13.3283 21.0049 12.4999 21.0049C11.6715 21.0049 10.9999 20.3333 10.9999 19.5049C10.9999 18.6765 11.6715 18.0049 12.4999 18.0049C13.3283 18.0049 13.9999 18.6765 13.9999 19.5049Z" fill="#EB0028"/>
<path fill-rule="evenodd" clip-rule="evenodd" d="M12.4999 18.8275C12.1258 18.8275 11.8225 19.1308 11.8225 19.5049C11.8225 19.879 12.1258 20.1823 12.4999 20.1823C12.874 20.1823 13.1773 19.879 13.1773 19.5049C13.1773 19.1308 12.874 18.8275 12.4999 18.8275ZM10.9999 19.5049C10.9999 18.6765 11.6715 18.0049 12.4999 18.0049C13.3283 18.0049 13.9999 18.6765 13.9999 19.5049C13.9999 20.3333 13.3283 21.0049 12.4999 21.0049C11.6715 21.0049 10.9999 20.3333 10.9999 19.5049Z" fill="#EB0028"/>
<path d="M9.99991 3.50488C9.99991 3.22874 10.2238 3.00488 10.4999 3.00488H14.4999C14.7761 3.00488 14.9999 3.22874 14.9999 3.50488C14.9999 3.78103 14.7761 4.00488 14.4999 4.00488H10.4999C10.2238 4.00488 9.99991 3.78103 9.99991 3.50488Z" fill="#EB0028"/>
<path d="M0.54038 5.27622C0.28654 5.53006 0.28654 5.94162 0.54038 6.19546L4.67696 10.332C4.9308 10.5859 5.34235 10.5859 5.59619 10.332C5.85003 10.0782 5.85003 9.66664 5.59619 9.4128L1.91924 5.73584L5.59619 2.05888C5.85003 1.80504 5.85003 1.39349 5.59619 1.13965C5.34235 0.885805 4.9308 0.885805 4.67696 1.13965L0.54038 5.27622ZM13 5.08584L1 5.08584V6.38584L13 6.38584V5.08584Z" fill="#EB0028" transform="translate(12 6)"/>
</svg>
