<svg width="20" height="20" viewBox="0 0 20 20" fill="none" xmlns="http://www.w3.org/2000/svg">
<g clip-path="url(#clip0)">
<path d="M4.56428 3.96606C7.5069 1.2951 11.9106 1.25426 14.894 3.69243L12.5293 3.78228C12.224 3.79453 11.988 4.04774 12.0002 4.35404C12.0124 4.65218 12.2566 4.88497 12.5496 4.88497C12.5578 4.88497 12.5618 4.88497 12.57 4.88497L16.2004 4.7502C16.4975 4.73794 16.7295 4.49698 16.7295 4.19885V4.15801C16.7295 4.14984 16.7295 4.14576 16.7295 4.13759V4.1335L16.5952 0.53138C16.583 0.225077 16.3266 -0.0117975 16.0254 0.000454631C15.7202 0.0127068 15.4841 0.265917 15.4963 0.57222L15.5818 2.8307C14.1044 1.61773 12.2851 0.91528 10.3396 0.817263C7.93018 0.694742 5.61435 1.5238 3.82761 3.14925C1.36933 5.38322 0.327408 8.78114 1.10885 12.0157C1.1699 12.2689 1.39375 12.4364 1.64202 12.4364C1.68679 12.4364 1.72749 12.4323 1.77226 12.42C2.0653 12.3465 2.24845 12.0484 2.17519 11.7543C1.49143 8.91183 2.40311 5.9264 4.56428 3.96606Z" fill="#BDBDBD"/>
<path d="M18.8216 7.98498C18.7483 7.69093 18.4512 7.50715 18.1581 7.58066C17.8651 7.65418 17.682 7.95231 17.7552 8.24636C18.443 11.0889 17.5273 14.0743 15.3661 16.0346C13.848 17.411 11.9432 18.0889 10.0466 18.0889C8.23546 18.0889 6.42838 17.4722 4.97132 16.2552L7.36448 16.0387C7.66566 16.0101 7.88951 15.7447 7.86102 15.4384C7.83253 15.1321 7.56798 14.9115 7.26273 14.9401L3.64449 15.2668C3.34331 15.2954 3.11946 15.5609 3.14795 15.8672L3.47355 19.4979C3.49797 19.7838 3.7381 20.0002 4.01893 20.0002C4.03521 20.0002 4.05149 20.0002 4.06777 19.9961C4.36896 19.9676 4.59281 19.7021 4.56432 19.3958L4.36896 17.1863C5.84637 18.387 7.65752 19.0854 9.59078 19.1834C9.74544 19.1916 9.9001 19.1957 10.0507 19.1957C12.2933 19.1957 14.4259 18.3707 16.1028 16.8514C18.5611 14.6175 19.603 11.2236 18.8216 7.98498Z" fill="#BDBDBD"/>
</g>
<defs>
<clipPath id="clip0">
<rect width="19.9313" height="20" fill="white"/>
</clipPath>
</defs>
</svg>
