<svg width="17" height="16" viewBox="0 0 17 16" fill="none" xmlns="http://www.w3.org/2000/svg">
<path d="M12.7492 4.23395C12.4372 3.92202 11.9314 3.92202 11.6194 4.23395L8.98816 6.86516L6.35694 4.23395C6.04342 3.93113 5.54506 3.93547 5.23684 4.24368C4.92863 4.55189 4.9243 5.05026 5.22711 5.36378L7.85833 7.995L5.22711 10.6262C5.0194 10.8268 4.93609 11.1239 5.00922 11.4033C5.08234 11.6826 5.30051 11.9008 5.57988 11.9739C5.85924 12.0471 6.15633 11.9638 6.35694 11.756L8.98816 9.12483L11.6194 11.756C11.9329 12.0589 12.4313 12.0545 12.7395 11.7463C13.0477 11.4381 13.052 10.9397 12.7492 10.6262L10.118 7.995L12.7492 5.36378C13.0611 5.05176 13.0611 4.54597 12.7492 4.23395Z" fill="#1A051D"/>
</svg>
