<svg width="24" height="25" viewBox="0 0 24 25" fill="none" xmlns="http://www.w3.org/2000/svg">
<path fill-rule="evenodd" clip-rule="evenodd" d="M11.4999 17.0049C16.1944 17.0049 19.9999 13.1993 19.9999 8.50488C19.9999 3.81046 16.1944 0.00488281 11.4999 0.00488281C6.80552 0.00488281 2.99994 3.81046 2.99994 8.50488C2.99994 13.1993 6.80552 17.0049 11.4999 17.0049ZM11.4999 16.0049C15.6421 16.0049 18.9999 12.647 18.9999 8.50488C18.9999 4.36275 15.6421 1.00488 11.4999 1.00488C7.35779 1.00488 3.99992 4.36275 3.99992 8.50488C3.99992 12.647 7.35779 16.0049 11.4999 16.0049Z" fill="#BDBDBD"/>
<rect width="0.995747" height="10" rx="0.497874" transform="matrix(0.805631 -0.592418 0.583871 0.811846 14.1185 16.0186)" fill="#BDBDBD"/>
</svg>
