<svg width="65" height="76" viewBox="0 0 65 76" fill="none" xmlns="http://www.w3.org/2000/svg">
<path d="M32.4992 6.39258C31.6421 6.39258 30.9531 7.04245 30.9531 7.84823C30.9531 8.59821 31.5524 9.22229 32.3444 9.29631C33.2614 9.38199 34.0453 8.70953 34.0453 7.84823C34.0453 7.04128 33.355 6.39258 32.4992 6.39258Z" fill="#EB0028"/>
<path d="M63.4524 9.30614C59.1856 9.30614 55.7143 6.03784 55.7143 2.02059C55.7143 1.21597 55.0213 0.563477 54.1667 0.563477H10.8333C9.97874 0.563477 9.28572 1.21597 9.28572 2.02059C9.28572 6.03784 5.8144 9.30614 1.54762 9.30614C0.693024 9.30614 0 9.95864 0 10.7633V34.5418C0 53.0729 12.829 69.6779 32.0555 75.1062C32.2005 75.147 32.3502 75.1676 32.5 75.1676C32.6498 75.1676 32.7998 75.147 32.9446 75.1061C51.7547 69.7936 65 53.4783 65 34.5418V10.7633C65 9.95864 64.307 9.30614 63.4524 9.30614ZM61.9048 34.5418C61.9048 51.9467 50.1087 67.0197 32.5 72.1867C15.0317 67.0609 3.09524 51.8515 3.09524 34.5418V12.1166C7.83265 11.4758 11.5901 7.93806 12.2708 3.4777H52.7292C53.4099 7.93806 57.1673 11.4758 61.9048 12.1166V34.5418Z" fill="#EB0028"/>
<path d="M57.8837 14.04C54.6563 12.7092 52.1004 10.3028 50.687 7.26412C50.4403 6.73402 49.8841 6.3916 49.2694 6.3916H38.6883C37.8337 6.3916 37.1407 7.0441 37.1407 7.84871C37.1407 8.65333 37.8337 9.30582 38.6883 9.30582H48.2908C49.9259 12.3193 52.5146 14.7564 55.7152 16.296V34.5415C55.7152 48.8013 46.6231 61.1051 32.5009 66.0303C18.3788 61.105 9.28664 48.8013 9.28664 34.5415V16.296C12.4873 14.7564 15.0758 12.3193 16.711 9.30582H26.3136C27.1681 9.30582 27.8612 8.65333 27.8612 7.84871C27.8612 7.0441 27.1681 6.3916 26.3136 6.3916H15.7325C15.1178 6.3916 14.5616 6.73417 14.3149 7.26412C12.9014 10.3028 10.3455 12.7092 7.11812 14.04C6.55525 14.2722 6.19141 14.7961 6.19141 15.3747V34.5415C6.19141 50.1637 16.4538 63.7789 31.9846 68.9535C32.1516 69.0092 32.3262 69.037 32.5009 69.037C32.6757 69.037 32.8502 69.0092 33.0172 68.9535C48.535 63.7833 58.8105 50.1763 58.8105 34.5415V15.3747C58.8105 14.7959 58.4466 14.2722 57.8837 14.04Z" fill="#EB0028"/>
<path d="M32.4989 21.8369C24.8187 21.8369 18.5703 27.7199 18.5703 34.9509C18.5703 42.182 24.8187 48.0649 32.4989 48.0649C40.1791 48.0649 46.4275 42.182 46.4275 34.9509C46.4275 27.7199 40.1791 21.8369 32.4989 21.8369ZM32.4989 45.1507C26.5254 45.1507 21.6656 40.5751 21.6656 34.9509C21.6656 29.3268 26.5254 24.7511 32.4989 24.7511C38.4724 24.7511 43.3322 29.3268 43.3322 34.9509C43.3322 40.5751 38.4724 45.1507 32.4989 45.1507Z" fill="#EB0028"/>
<path d="M39.784 31.0067C39.1795 30.4379 38.1998 30.4379 37.5952 31.0067L30.9516 37.262L28.9507 35.3782C28.3462 34.8093 27.3665 34.8093 26.7619 35.3782C26.1575 35.9472 26.1575 36.8698 26.7619 37.439L29.8571 40.3532C30.1595 40.6375 30.5554 40.7799 30.9516 40.7799C31.3478 40.7799 31.7436 40.6375 32.0459 40.3531L39.784 33.0675C40.3883 32.4985 40.3883 31.5759 39.784 31.0067Z" fill="#EB0028"/>
</svg>
