<svg width="60" height="46" viewBox="0 0 60 46" fill="none" xmlns="http://www.w3.org/2000/svg">
<path d="M0.986328 13.5479V31.8517L11.8417 31.8467L25.4894 44.0858C26.1378 44.4583 26.9417 44.4592 27.591 44.0882C28.2402 43.7173 28.6332 43.0326 28.618 42.2984V4.06448C28.6331 3.33033 28.2402 2.64552 27.591 2.27466C26.9417 1.90369 26.1378 1.9046 25.4894 2.27703L11.8417 13.5479H0.986328Z" fill="white"/>
<path d="M26.5428 45.3406C25.9919 45.3391 25.452 45.1904 24.9815 44.9107C24.9245 44.8776 24.8712 44.8389 24.8225 44.795L11.4576 32.8104L0.986809 32.815C0.441884 32.8149 0.000115743 32.3837 9.64829e-08 31.8517V13.5478C-0.00011555 13.2922 0.103735 13.0471 0.288884 12.8665C0.474034 12.6858 0.725102 12.5844 0.986809 12.5845H11.4808L24.8533 1.54157C24.8934 1.50827 24.9362 1.47847 24.9814 1.45216C25.9134 0.894806 27.0827 0.878549 28.0307 1.40983C29.013 1.94754 29.6168 2.96539 29.6054 4.06475V42.2981C29.6168 43.3975 29.0131 44.4153 28.0307 44.953C27.5773 45.2055 27.0647 45.339 26.5428 45.3406ZM26.0734 43.3011C26.3856 43.456 26.7568 43.4464 27.0602 43.2757C27.4191 43.0761 27.6383 42.7014 27.6317 42.2981V4.06475C27.6383 3.66149 27.4193 3.2868 27.0602 3.08731C26.7516 2.91267 26.3724 2.90623 26.0579 3.07038L12.479 14.2835C12.3008 14.4304 12.0752 14.511 11.8421 14.5113H1.97373V30.8884L11.8422 30.8837C12.0895 30.8834 12.328 30.9741 12.51 31.1377L26.0734 43.3011Z" fill="#e2e2e1"/>
<path d="M11.8423 19.3275C11.5805 19.3276 11.3294 19.2262 11.1444 19.0455C10.9592 18.8647 10.8554 18.6196 10.8555 18.3641V13.5473C10.8555 13.0152 11.2974 12.584 11.8423 12.584C12.3873 12.584 12.8291 13.0154 12.8291 13.5473V18.3641C12.8292 18.6197 12.7254 18.8648 12.5402 19.0455C12.3552 19.2262 12.1041 19.3277 11.8423 19.3275Z" fill="#e2e2e1"/>
<path d="M11.8423 32.8148C11.5805 32.8149 11.3294 32.7135 11.1444 32.5328C10.9592 32.352 10.8554 32.1069 10.8555 31.8514V27.0346C10.8555 26.5025 11.2974 26.0713 11.8423 26.0713C12.3873 26.0713 12.8291 26.5025 12.8291 27.0346V31.8514C12.8292 32.107 12.7254 32.3521 12.5402 32.5328C12.3552 32.7135 12.1041 32.8149 11.8423 32.8148Z" fill="#e2e2e1"/>
<path d="M37.9946 40.5215C37.5121 40.5215 37.1002 40.1807 37.0213 39.716C36.9423 39.2513 37.219 38.7989 37.6757 38.6466C44.6716 36.322 49.3738 29.9059 49.3685 22.6918C49.3631 15.4776 44.6517 9.06798 37.6526 6.7531C37.3186 6.64246 37.0704 6.36644 37.0015 6.02877C36.9326 5.69111 37.0534 5.34328 37.3186 5.11625C37.5836 4.88922 37.9527 4.81742 38.2867 4.92806C46.0861 7.50802 51.3361 14.6506 51.3422 22.6895C51.3483 30.7284 46.1091 37.8784 38.3136 40.4697C38.211 40.5042 38.1031 40.5217 37.9946 40.5215Z" fill="#e2e2e1"/>
<path d="M42.7762 45.6723C42.301 45.6724 41.8933 45.3418 41.806 44.886C41.7187 44.43 41.9765 43.9781 42.4196 43.8105C51.2259 40.4809 57.085 32.2713 57.2339 23.0533C57.3827 13.8353 51.7915 5.44972 43.097 1.85078C42.7723 1.71632 42.5459 1.42303 42.5027 1.0813C42.4597 0.739568 42.6066 0.401451 42.8882 0.194179C43.1698 -0.0130943 43.5433 -0.0579135 43.8679 0.0765429C53.3021 3.98221 59.3687 13.0814 59.2072 23.0837C59.0458 33.086 52.6883 41.9941 43.1327 45.6075C43.019 45.6503 42.8981 45.6723 42.7762 45.6723Z" fill="#e2e2e1"/>
<path d="M32.5655 35.2239C32.0738 35.2241 31.6569 34.8708 31.5881 34.3954C31.5192 33.92 31.8193 33.4678 32.2919 33.3348C37.1451 31.9671 40.4863 27.6305 40.4863 22.6993C40.4863 17.7681 37.1451 13.4315 32.2919 12.0638C31.9522 11.9691 31.6904 11.7044 31.6053 11.3696C31.5202 11.035 31.6247 10.6814 31.8794 10.4425C32.1341 10.2037 32.5002 10.1158 32.8392 10.2124C38.5372 11.8183 42.4601 16.9098 42.4601 22.6993C42.4601 28.4888 38.5372 33.5803 32.8392 35.1862C32.7502 35.2111 32.6581 35.2238 32.5655 35.2239Z" fill="#e2e2e1"/>
</svg>
