<svg width="11" height="10" viewBox="0 0 11 10" fill="none" xmlns="http://www.w3.org/2000/svg">
<path d="M6.00083 0.518969L7.11835 2.80433C7.19606 2.96327 7.34632 3.07341 7.52014 3.09886L10.0191 3.46536C10.4569 3.52961 10.6315 4.07237 10.3149 4.3838L8.50662 6.16269C8.38096 6.28639 8.3235 6.46474 8.35326 6.63933L8.78006 9.15122C8.85488 9.59114 8.39729 9.92656 8.00583 9.71901L5.77079 8.53315C5.61537 8.45076 5.42956 8.45076 5.27414 8.53315L3.0391 9.71901C2.64764 9.92677 2.19005 9.59114 2.26487 9.15122L2.69167 6.63933C2.72143 6.46474 2.66397 6.28639 2.53831 6.16269L0.730064 4.3838C0.41343 4.07216 0.588075 3.5294 1.02582 3.46536L3.5248 3.09886C3.69862 3.07341 3.84887 2.96327 3.92658 2.80433L5.0441 0.518969C5.23962 0.118677 5.8051 0.118677 6.00083 0.518969Z" fill="black"/>
</svg>
