<svg width="24" height="25" viewBox="0 0 24 25" fill="none" xmlns="http://www.w3.org/2000/svg">
<g clip-path="url(#clip0)">
<path d="M13.1589 1.24982L15.8658 6.73468C16.054 7.11616 16.418 7.38049 16.839 7.44156L22.8921 8.32116C23.9524 8.47535 24.3754 9.77798 23.6084 10.5254L19.2285 14.7948C18.9241 15.0916 18.7849 15.5197 18.857 15.9387L19.8908 21.9672C20.072 23.023 18.9636 23.828 18.0155 23.3299L12.6017 20.4839C12.2252 20.2861 11.7752 20.2861 11.3987 20.4839L5.98492 23.3299C5.03674 23.8285 3.92835 23.023 4.10958 21.9672L5.14337 15.9387C5.21546 15.5197 5.07628 15.0916 4.7719 14.7948L0.391929 10.5254C-0.37503 9.77748 0.0479991 8.47485 1.10832 8.32116L7.16139 7.44156C7.58242 7.38049 7.94637 7.11616 8.13461 6.73468L10.8415 1.24982C11.3151 0.289122 12.6848 0.289122 13.1589 1.24982Z" fill="#FEC705"/>
</g>
<defs>
<clipPath id="clip0">
<rect width="24" height="24" fill="white" transform="translate(-6.10352e-05 0.00488281)"/>
</clipPath>
</defs>
</svg>
