<svg width="24" height="25" viewBox="0 0 24 25" fill="none" xmlns="http://www.w3.org/2000/svg">
<g clip-path="url(#clip0)">
<path d="M11.9999 24.0049C18.6274 24.0049 23.9999 18.6323 23.9999 12.0049C23.9999 5.37747 18.6274 0.00488281 11.9999 0.00488281C5.37252 0.00488281 -6.10352e-05 5.37747 -6.10352e-05 12.0049C-6.10352e-05 18.6323 5.37252 24.0049 11.9999 24.0049Z" fill="url(#paint0_linear)"/>
<path d="M17.9999 6.46566L15.7859 18.4637C15.7859 18.4637 15.4761 19.2959 14.6246 18.8964L9.51484 14.6861L7.65692 13.721L4.52924 12.5896C4.52924 12.5896 4.04895 12.4068 4.00255 12.0073C3.95614 11.6078 4.54432 11.3918 4.54432 11.3918L16.9785 6.14989C16.9779 6.14927 17.9999 5.66669 17.9999 6.46566Z" fill="white"/>
<path d="M8.66132 18.0049C8.66132 18.0049 8.49235 17.9899 8.28131 17.3481C8.07093 16.7069 6.99994 13.3312 6.99994 13.3312L15.512 8.13252C15.512 8.13252 16.0031 7.84533 15.986 8.13252C15.986 8.13252 16.0734 8.18309 15.8105 8.41971C15.5475 8.65632 9.12351 14.209 9.12351 14.209" fill="#D2E5F1"/>
<path d="M10.9999 15.7865L9.28114 17.9244C9.28114 17.9244 9.14695 18.0633 8.99994 17.9762L9.329 14.0049" fill="#B5CFE4"/>
</g>
<defs>
<linearGradient id="paint0_linear" x1="11.9999" y1="0.00488281" x2="11.9999" y2="23.9173" gradientUnits="userSpaceOnUse">
<stop stop-color="#42BCE8"/>
<stop offset="1" stop-color="#23A7DC"/>
</linearGradient>
<clipPath id="clip0">
<rect width="24" height="24" fill="white" transform="translate(-6.10352e-05 0.00488281)"/>
</clipPath>
</defs>
</svg>
