<svg width="28" height="28" viewBox="0 0 28 28" xmlns="http://www.w3.org/2000/svg" fill="#eb0028">
<g clip-path="url(#clip0)">
<path d="M5.63562 19.2839C7.19913 20.3197 9.05628 20.9239 11.0518 20.9239C17.5508 20.9239 21.1045 15.3627 21.1045 10.5394C21.1045 10.3814 21.1011 10.2239 21.0945 10.0673C21.7849 9.55284 22.3838 8.90999 22.8575 8.17803C22.2238 8.46834 21.543 8.66468 20.8282 8.75292C21.5577 8.30113 22.1179 7.58592 22.3816 6.73373C21.6989 7.15177 20.9429 7.45577 20.1381 7.61924C19.4936 6.90999 18.5753 6.4668 17.5589 6.4668C15.6078 6.4668 14.0257 8.10104 14.0257 10.1165C14.0257 10.4024 14.0571 10.681 14.1173 10.9482C11.181 10.7959 8.57747 9.34304 6.83478 7.13479C6.53067 7.67395 6.3564 8.30068 6.3564 8.96978C6.3564 10.2358 6.98001 11.353 7.92824 12.0075C7.34883 11.9885 6.80403 11.8242 6.32778 11.5509C6.32757 11.5663 6.32757 11.5815 6.32757 11.597C6.32757 13.3651 7.54553 14.8403 9.16178 15.1756C8.86536 15.2588 8.55313 15.3038 8.23086 15.3038C8.0032 15.3038 7.78194 15.2808 7.56603 15.238C8.01558 16.6881 9.32068 17.7432 10.8667 17.7726C9.65747 18.7516 8.1339 19.3351 6.47856 19.3351C6.19324 19.3351 5.91197 19.3179 5.63562 19.2839Z"/>
<!--<path d="M0.987793 0V27.3903H27.504V0H0.987793ZM25.8638 25.6961H2.62797V1.69425H25.8638V25.6961Z"/>-->
</g>
<defs>
<clipPath id="clip0">
<rect width="26.5162" height="27.3903" transform="translate(0.987793)"/>
</clipPath>
</defs>
</svg>
