<svg width="24" height="25" viewBox="0 0 24 25" fill="none" xmlns="http://www.w3.org/2000/svg">
<g clip-path="url(#clip0)">
<path d="M20.53 10.0762C20.5588 6.69249 17.6769 3.59055 14.1057 3.1616C14.0347 3.15316 13.9573 3.14037 13.8754 3.12677C13.6986 3.09748 13.5158 3.06738 13.3314 3.06738C12.5995 3.06738 12.4038 3.58151 12.3523 3.88816C12.3022 4.18628 12.35 4.43664 12.494 4.63263C12.7364 4.9622 13.1629 5.0207 13.5055 5.06762C13.6059 5.0815 13.7006 5.09439 13.7799 5.1122C16.9885 5.82915 18.0688 6.95631 18.5968 10.1376C18.6097 10.2153 18.6155 10.3111 18.6217 10.4127C18.6447 10.793 18.6927 11.5841 19.5433 11.5841H19.5434C19.6142 11.5841 19.6903 11.578 19.7695 11.5659C20.5616 11.4456 20.5368 10.7224 20.5249 10.3749C20.5215 10.277 20.5183 10.1844 20.5266 10.1229C20.5288 10.1074 20.5299 10.0918 20.53 10.0762Z" fill="#7F40BD"/>
<path d="M13.1237 1.91953C13.2187 1.92638 13.3087 1.93294 13.3836 1.94442C18.6523 2.7547 21.0753 5.25097 21.7468 10.5609C21.7582 10.6512 21.76 10.7612 21.7619 10.8778C21.7686 11.2927 21.7824 12.1557 22.7092 12.1736L22.738 12.1739C23.0287 12.1739 23.2599 12.0862 23.4253 11.9131C23.7138 11.6114 23.6937 11.1631 23.6774 10.8027C23.6735 10.7143 23.6697 10.6311 23.6706 10.5582C23.7376 5.1275 19.0368 0.202976 13.6109 0.0198828C13.5884 0.0191328 13.567 0.0203515 13.5453 0.0233984C13.5346 0.0249452 13.5149 0.026914 13.481 0.026914C13.4269 0.026914 13.3604 0.0222265 13.2898 0.0174453C13.2044 0.0115859 13.1077 0.00488281 13.0096 0.00488281C12.1455 0.00488281 11.9813 0.619037 11.9603 0.985129C11.9118 1.83127 12.7303 1.8908 13.1237 1.91953Z" fill="#7F40BD"/>
<path d="M21.4925 17.4236C21.3805 17.338 21.2647 17.2495 21.1563 17.1621C20.581 16.6992 19.969 16.2725 19.3771 15.8598C19.2543 15.7743 19.1315 15.6886 19.0091 15.6027C18.2509 15.0702 17.5693 14.8114 16.9253 14.8114C16.058 14.8114 15.3018 15.2906 14.6776 16.2356C14.4011 16.6546 14.0656 16.8583 13.6522 16.8583C13.4078 16.8583 13.1299 16.7885 12.8267 16.6509C10.3795 15.5411 8.63201 13.8397 7.63278 11.5937C7.14974 10.5082 7.30635 9.79865 8.15647 9.22116C8.63923 8.8935 9.53782 8.28352 9.47416 7.11545C9.40207 5.78898 6.4753 1.79773 5.24212 1.34445C4.72003 1.15245 4.17145 1.15067 3.60872 1.34C2.19104 1.81658 1.17371 2.65353 0.666435 3.76019C0.176218 4.82955 0.198343 6.08514 0.730466 7.39126C2.26871 11.1676 4.43137 14.4601 7.15864 17.177C9.82816 19.8367 13.1092 22.0153 16.9106 23.6522C17.2532 23.7996 17.6126 23.88 17.875 23.9387C17.9645 23.9588 18.0417 23.9759 18.098 23.9914C18.1289 23.9998 18.1608 24.0043 18.1928 24.0046L18.2228 24.0048C18.2229 24.0048 18.2228 24.0048 18.223 24.0048C20.0109 24.0048 22.1577 22.371 22.817 20.5084C23.3947 18.8775 22.34 18.0713 21.4925 17.4236Z" fill="#7F40BD"/>
<path d="M13.9145 6.23307C13.6084 6.24081 12.9713 6.2566 12.7478 6.90545C12.6432 7.20863 12.6557 7.47188 12.7851 7.68788C12.9748 8.0048 13.3384 8.10193 13.6691 8.15522C14.8685 8.34769 15.4844 9.01087 15.6076 10.2422C15.6648 10.8163 16.0515 11.2172 16.5479 11.2172H16.548C16.5846 11.2172 16.6221 11.2151 16.6595 11.2105C17.2565 11.1395 17.5459 10.7009 17.5198 9.90693C17.5293 9.07833 17.0957 8.13764 16.3582 7.38835C15.618 6.63676 14.7259 6.21348 13.9145 6.23307Z" fill="#7F40BD"/>
</g>
<defs>
<clipPath id="clip0">
<rect width="24" height="24" fill="white" transform="translate(-6.10352e-05 0.00488281)"/>
</clipPath>
</defs>
</svg>
