<svg width="42" height="42" viewBox="0 0 42 42" fill="none" xmlns="http://www.w3.org/2000/svg">
<path d="M39.9128 35.9031H39.9677V31.8387C39.9677 31.7513 39.9596 29.6722 39.2354 27.5072L37.027 22.3548H35.2257H33.4244L31.1957 27.56C30.4918 29.6722 30.4837 31.7512 30.4837 31.8385V33.1934H28.4515C27.3311 33.1934 26.4192 32.2815 26.4192 31.1611V28.3397C29.6532 26.4619 31.8385 22.9692 31.8385 18.9676V18.8715C33.0036 18.5686 33.8708 17.5173 33.8708 16.2581C33.8708 15.0408 33.4122 14.2719 33.1554 13.9358C33.1785 13.8105 33.1934 13.6825 33.1934 13.5483V12.1935C33.1934 5.47023 27.7233 0 20.9999 0C14.2765 0 8.80646 5.47009 8.80646 12.1935V13.5483C8.80646 13.6825 8.82139 13.8105 8.84444 13.9358C8.58767 14.2719 8.12903 15.0408 8.12903 16.2581C8.12903 17.5173 8.99609 18.5687 10.1613 18.8715V18.9676C10.1613 22.9692 12.3467 26.4619 15.5806 28.3397V31.1611C15.5806 32.2815 14.6688 33.1934 13.5483 33.1934H10.1612V32.2388C11.493 31.4314 12.1935 30.1307 12.1935 28.4514C12.1935 26.8026 11.0812 24.8827 8.9554 24.4032L8.12888 24.2168V27.774H6.77402V24.2155L5.94623 24.4032C3.82118 24.8868 2.70958 26.8053 2.70958 28.4514C2.70958 30.1307 3.41006 31.4307 4.74187 32.2388V33.9427C1.94822 35.2298 0 38.0498 0 41.3226V42H1.35486V41.3226C1.35486 37.8162 4.03343 34.9237 7.4516 34.583V42H8.80646V34.5484H10.8386V42H12.1935V34.5484H13.5483C13.8247 34.5484 14.0889 34.5057 14.3464 34.4434C14.9351 37.5826 17.6922 39.9677 20.9999 39.9677C24.3077 39.9677 27.0648 37.5825 27.6535 34.4434C27.9109 34.5057 28.1751 34.5484 28.4515 34.5484H29.8064V42H31.1612V34.5484H33.1935V42H34.5484V34.5828C37.9667 34.9242 40.6451 37.8162 40.6451 41.3224V41.9999H42V41.3224C41.9999 39.2393 41.2059 37.3433 39.9128 35.9031ZM9.1823 31.2317L8.80632 31.4186V33.1934H8.12888C7.42642 33.1934 6.74756 33.2923 6.09659 33.461V31.4186L5.72075 31.2317C4.60644 30.6783 4.06444 29.7691 4.06444 28.4515C4.06444 27.581 4.52706 26.5975 5.4193 26.0569V29.129H9.48375V26.0555C10.3758 26.5946 10.8386 27.5796 10.8386 28.4515C10.8386 29.7691 10.2966 30.6781 9.1823 31.2317ZM31.8387 15.6769C32.027 15.5536 32.2004 15.4236 32.3542 15.2847C32.443 15.5307 32.5161 15.853 32.5161 16.2582C32.516 16.7574 32.2417 17.1896 31.8387 17.4247V15.6769ZM20.3225 1.38957V6.09688H21.6774V1.38957C27.2193 1.73512 31.6374 6.25336 31.8203 11.8374C29.4093 10.5524 24.3491 10.1615 20.9999 10.1615C17.6508 10.1615 12.5905 10.5524 10.1795 11.8367C10.3625 6.25322 14.7806 1.73412 20.3225 1.38957ZM10.1613 17.424C9.75816 17.1896 9.48389 16.7574 9.48389 16.2582C9.48389 15.8525 9.55701 15.53 9.64578 15.284C9.79956 15.4236 9.97297 15.5536 10.1613 15.6762V17.424ZM10.1619 13.5505C10.2946 12.8595 14.2352 11.5162 20.9999 11.5162C27.7687 11.5162 31.7105 12.8608 31.8385 13.5485C31.8387 14.8801 27.7843 16.2581 20.9999 16.2581C14.2189 16.2581 10.1653 14.8816 10.1619 13.5505ZM11.516 18.9676V16.3494C14.5027 17.4874 19.1315 17.6128 20.9999 17.6128C22.8683 17.6128 27.497 17.4874 30.4838 16.3494V18.9676C30.4838 24.1973 26.2296 28.4515 20.9999 28.4515C15.7703 28.4515 11.516 24.1973 11.516 18.9676ZM20.9999 38.6128C18.2245 38.6128 15.9321 36.5143 15.6199 33.8208C16.4145 33.2009 16.9355 32.2451 16.9355 31.1612V29.0085C18.192 29.5192 19.5626 29.8065 20.9999 29.8065C22.4373 29.8065 23.8078 29.5193 25.0644 29.0085V31.1612C25.0644 32.2451 25.5853 33.2009 26.38 33.8208C26.0677 36.5141 23.7754 38.6128 20.9999 38.6128ZM33.7219 33.1935H31.8387V31.8387C31.8387 31.8198 31.8461 29.8944 32.4612 28.0411L34.3174 23.7097H34.5484V29.931C33.7619 30.2114 33.1935 30.9567 33.1935 31.8387C33.1935 32.361 33.3974 32.8331 33.7219 33.1935ZM35.2257 32.5161C34.8524 32.5161 34.5483 32.2127 34.5483 31.8387C34.5483 31.4647 34.8524 31.1612 35.2257 31.1612C35.599 31.1612 35.9031 31.4647 35.9031 31.8387C35.9031 32.2127 35.599 32.5161 35.2257 32.5161ZM38.6128 34.7332C37.9124 34.2279 37.1334 33.8247 36.2913 33.5613C36.8692 33.2029 37.258 32.5675 37.258 31.8385C37.258 30.9565 36.6897 30.2114 35.9031 29.9309V23.7095H36.1341L37.97 27.9882C38.6027 29.8849 38.6128 31.8196 38.6128 31.8392V34.7332Z" fill="black"/>
<path d="M21.6771 19.6439H27.7739V18.2891H20.3223V25.0632H21.6771V19.6439Z" fill="black"/>
<path d="M13.5487 8.80664H12.1938V10.1615H13.5487V8.80664Z" fill="black"/>
<path d="M16.2582 8.12891H14.9033V9.48377H16.2582V8.12891Z" fill="black"/>
</svg>
