<svg width="67" height="64" viewBox="0 0 67 64" fill="none" xmlns="http://www.w3.org/2000/svg">
<path d="M63.6704 54.7095H63.758V48.5161C63.758 48.383 63.7451 45.2148 62.5897 41.9158L59.0668 34.0644H56.1934H53.3199L49.7645 41.9962C48.6417 45.2148 48.6287 48.3828 48.6287 48.5159V50.5804H45.387C43.5996 50.5804 42.145 49.1909 42.145 47.4836V43.1843C47.3039 40.3229 50.79 35.0007 50.79 28.9031V28.7565C52.6486 28.295 54.032 26.6931 54.032 24.7742C54.032 22.9192 53.3004 21.7476 52.8908 21.2356C52.9275 21.0446 52.9514 20.8495 52.9514 20.6451V18.5805C52.9514 8.33559 44.2253 0 33.4999 0C22.7745 0 14.0484 8.33537 14.0484 18.5805V20.6451C14.0484 20.8495 14.0722 21.0446 14.109 21.2356C13.6994 21.7476 12.9677 22.9192 12.9677 24.7742C12.9677 26.6931 14.3509 28.2952 16.2097 28.7565V28.9031C16.2097 35.0007 19.6959 40.3229 24.8548 43.1843V47.4836C24.8548 49.1909 23.4002 50.5804 21.6128 50.5804H16.2095V49.1259C18.3341 47.8955 19.4515 45.9135 19.4515 43.3545C19.4515 40.8421 17.6771 37.9165 14.286 37.1858L12.9675 36.9018V42.3222H10.8062V36.8998L9.48565 37.1858C6.0957 37.9228 4.32243 40.8462 4.32243 43.3545C4.32243 45.9135 5.43985 47.8944 7.56442 49.1259V51.7222C3.10787 53.6835 0 57.9806 0 62.9677V64H2.16133V62.9677C2.16133 57.6247 6.43428 53.217 11.8871 52.6979V64H14.0484V52.6452H17.2902V64H19.4515V52.6452H21.6128C22.0537 52.6452 22.4752 52.5802 22.8859 52.4852C23.825 57.2687 28.2232 60.9032 33.4999 60.9032C38.7766 60.9032 43.1748 57.2685 44.1138 52.4852C44.5246 52.5802 44.946 52.6452 45.387 52.6452H47.5483V64H49.7096V52.6452H52.9516V64H55.1129V52.6976C60.5659 53.2179 64.8387 57.6247 64.8387 62.9675V63.9998H67V62.9675C66.9998 59.7933 65.7332 56.9041 63.6704 54.7095ZM14.648 47.5911L14.0482 47.8759V50.5804H12.9675C11.8469 50.5804 10.764 50.7311 9.72552 50.9882V47.8759L9.12596 47.5911C7.34838 46.7479 6.48375 45.3625 6.48375 43.3547C6.48375 42.0283 7.22175 40.5295 8.64508 39.7058V44.387H15.1288V39.7036C16.5519 40.5252 17.2902 42.0261 17.2902 43.3547C17.2902 45.3625 16.4255 46.7476 14.648 47.5911ZM50.7903 23.8887C51.0907 23.7007 51.3674 23.5026 51.6127 23.291C51.7543 23.6658 51.8709 24.157 51.8709 24.7744C51.8707 25.5351 51.4332 26.1936 50.7903 26.5519V23.8887ZM32.4192 2.11744V9.29048H34.5805V2.11744C43.4212 2.64399 50.4692 9.52893 50.761 18.0379C46.9149 16.0798 38.8426 15.4841 33.4999 15.4841C28.1572 15.4841 20.0849 16.0798 16.2388 18.0369C16.5306 9.52871 23.5785 2.64247 32.4192 2.11744ZM16.2097 26.5509C15.5666 26.1936 15.1291 25.5351 15.1291 24.7744C15.1291 24.1562 15.2457 23.6647 15.3873 23.2899C15.6326 23.5026 15.9093 23.7007 16.2097 23.8876V26.5509ZM16.2106 20.6483C16.4224 19.5955 22.7085 17.5485 33.4999 17.5485C44.2977 17.5485 50.5858 19.5974 50.79 20.6453C50.7903 22.6745 44.3226 24.7742 33.4999 24.7742C22.6826 24.7742 16.2161 22.6767 16.2106 20.6483ZM18.3708 28.9031V24.9133C23.1353 26.6475 30.5193 26.8385 33.4999 26.8385C36.4804 26.8385 43.8642 26.6475 48.6289 24.9133V28.9031C48.6289 36.8721 41.8425 43.3547 33.4999 43.3547C25.1573 43.3547 18.3708 36.8721 18.3708 28.9031ZM33.4999 58.8386C29.0724 58.8386 25.4156 55.6408 24.9174 51.5364C26.1851 50.5919 27.0161 49.1354 27.0161 47.4838V44.2034C29.0206 44.9816 31.2069 45.4195 33.4999 45.4195C35.7928 45.4195 37.9791 44.9818 39.9836 44.2034V47.4838C39.9836 49.1354 40.8147 50.5919 42.0823 51.5364C41.5842 55.6406 37.9274 58.8386 33.4999 58.8386ZM53.7944 50.5806H50.7903V48.5161C50.7903 48.4873 50.8021 45.5534 51.7833 42.7293L54.7444 36.129H55.1129V45.6091C53.8582 46.0364 52.9516 47.1721 52.9516 48.5161C52.9516 49.3121 53.2768 50.0313 53.7944 50.5806ZM56.1934 49.5484C55.5979 49.5484 55.1127 49.086 55.1127 48.5161C55.1127 47.9462 55.5979 47.4838 56.1934 47.4838C56.7888 47.4838 57.274 47.9462 57.274 48.5161C57.274 49.086 56.7888 49.5484 56.1934 49.5484ZM61.5967 52.9268C60.4792 52.1568 59.2366 51.5425 57.8933 51.141C58.8151 50.5949 59.4354 49.6266 59.4354 48.5159C59.4354 47.1719 58.5287 46.0364 57.274 45.6089V36.1288H57.6426L60.5712 42.6487C61.5806 45.5389 61.5967 48.487 61.5967 48.5169V52.9268Z" fill="#EB0028"/>
<path d="M34.5812 29.9356H44.307V27.8711H32.4199V38.1936H34.5812V29.9356Z" fill="#EB0028"/>
<path d="M21.6125 13.4194H19.4512V15.484H21.6125V13.4194Z" fill="#EB0028"/>
<path d="M25.9348 12.3872H23.7734V14.4518H25.9348V12.3872Z" fill="#EB0028"/>
</svg>
