<svg width="130" height="130" viewBox="0 0 130 130" fill="none" xmlns="http://www.w3.org/2000/svg">
<path d="M123.54 111.129H123.71V98.5483C123.71 98.2779 123.684 91.8426 121.443 85.1414L114.607 69.1934H109.032H103.457L96.558 85.3047C94.3793 91.8426 94.3542 98.2775 94.3542 98.5479V102.741H88.0642C84.5963 102.741 81.7738 99.919 81.7738 96.451V87.7181C91.7836 81.9059 98.5479 71.0951 98.5479 58.7093V58.4117C102.154 57.4742 104.838 54.2203 104.838 50.3226C104.838 46.5547 103.419 44.1748 102.624 43.1347C102.695 42.7468 102.741 42.3505 102.741 41.9353V37.7417C102.741 16.9317 85.8102 0 64.9998 0C44.1893 0 27.2581 16.9312 27.2581 37.7417V41.9353C27.2581 42.3505 27.3043 42.7468 27.3757 43.1347C26.5809 44.1748 25.1613 46.5547 25.1613 50.3226C25.1613 54.2203 27.845 57.4747 31.4517 58.4117V58.7093C31.4517 71.0951 38.2159 81.9059 48.2257 87.7181V96.451C48.2257 99.919 45.4033 102.741 41.9353 102.741H31.4513V99.7869C35.5736 97.2877 37.7417 93.2618 37.7417 88.0638C37.7417 82.9605 34.2988 77.0179 27.7191 75.5336L25.1608 74.9568V85.967H20.9672V74.9528L18.405 75.5336C11.8275 77.0307 8.3868 82.9688 8.3868 88.0638C8.3868 93.2618 10.5549 97.2854 14.6772 99.7869V105.061C6.0302 109.045 0 117.773 0 127.903V130H4.19362V127.903C4.19362 117.05 12.4844 108.097 23.0645 107.043V130H27.2581V106.936H33.5481V130H37.7417V106.936H41.9353C42.7909 106.936 43.6085 106.803 44.4055 106.611C46.2276 116.327 54.7614 123.71 64.9998 123.71C75.2381 123.71 83.772 116.327 85.594 106.611C86.391 106.803 87.2087 106.936 88.0642 106.936H92.2579V130H96.4515V106.936H102.742V130H106.936V107.042C117.516 108.099 125.806 117.05 125.806 127.903V130H130V127.903C130 121.455 127.542 115.587 123.54 111.129ZM28.4214 96.6694L27.2576 97.248V102.741H25.1608C22.9865 102.741 20.8853 103.047 18.8704 103.57V97.248L17.7071 96.6694C14.258 94.9566 12.5804 92.1425 12.5804 88.0642C12.5804 85.3699 14.0123 82.3255 16.774 80.6523V90.161H29.3545V80.6479C32.1157 82.3167 33.5481 85.3655 33.5481 88.0642C33.5481 92.1425 31.8704 94.9561 28.4214 96.6694ZM98.5483 48.5238C99.1313 48.1421 99.668 47.7396 100.144 47.3099C100.419 48.0712 100.645 49.069 100.645 50.323C100.645 51.8681 99.7957 53.2058 98.5483 53.9336V48.5238ZM62.903 4.30106V18.8713H67.0966V4.30106C84.2502 5.3706 97.9252 19.3556 98.4915 36.6396C91.0289 32.6621 75.3663 31.4521 64.9998 31.4521C54.6333 31.4521 38.9706 32.6621 31.5081 36.6374C32.0743 19.3552 45.7494 5.36752 62.903 4.30106ZM31.4517 53.9314C30.2038 53.2058 29.3549 51.8681 29.3549 50.323C29.3549 49.0672 29.5812 48.069 29.856 47.3077C30.332 47.7396 30.8687 48.1421 31.4517 48.5216V53.9314ZM31.4535 41.9419C31.8643 39.8033 44.0612 35.6453 64.9998 35.6453C85.9507 35.6453 98.1516 39.8072 98.5479 41.9357C98.5483 46.0576 85.9991 50.3226 64.9998 50.3226C44.011 50.3226 31.464 46.062 31.4535 41.9419ZM35.6449 58.7093V50.6052C44.8894 54.1278 59.2166 54.5157 64.9998 54.5157C70.783 54.5157 85.1097 54.1278 94.3547 50.6052V58.7093C94.3547 74.8964 81.1869 88.0642 64.9998 88.0642C48.8127 88.0642 35.6449 74.8964 35.6449 58.7093ZM64.9998 119.516C56.4091 119.516 49.3138 113.02 48.3473 104.683C50.8069 102.765 52.4194 99.8063 52.4194 96.4515V89.7881C56.3087 91.3689 60.5508 92.2583 64.9998 92.2583C69.4488 92.2583 73.6908 91.3693 77.5802 89.7881V96.4515C77.5802 99.8063 79.1926 102.765 81.6523 104.683C80.6858 113.02 73.5904 119.516 64.9998 119.516ZM104.377 102.742H98.5483V98.5483C98.5483 98.4897 98.5712 92.5304 100.475 86.7939L106.22 73.387H106.936V92.6436C104.501 93.5115 102.742 95.8183 102.742 98.5483C102.742 100.165 103.373 101.626 104.377 102.742ZM109.032 100.645C107.876 100.645 106.935 99.7059 106.935 98.5483C106.935 97.3907 107.876 96.4515 109.032 96.4515C110.187 96.4515 111.129 97.3907 111.129 98.5483C111.129 99.7059 110.187 100.645 109.032 100.645ZM119.516 107.508C117.348 105.943 114.937 104.696 112.33 103.88C114.119 102.771 115.322 100.804 115.322 98.5479C115.322 95.8179 113.563 93.5115 111.129 92.6431V73.3866H111.844L117.526 86.6301C119.485 92.5009 119.516 98.4893 119.516 98.55V107.508Z" fill="black"/>
<path d="M67.096 60.8054H85.9668V56.6118H62.9023V77.5795H67.096V60.8054Z" fill="black"/>
<path d="M41.9358 27.2578H37.7422V31.4514H41.9358V27.2578Z" fill="black"/>
<path d="M50.3225 25.1611H46.1289V29.3548H50.3225V25.1611Z" fill="black"/>
</svg>
