<svg width="28" height="28" viewBox="0 0 28 28" xmlns="http://www.w3.org/2000/svg" fill="#eb0028">
<g clip-path="url(#clip0)">
<path d="M7.78575 19.6485C9.92119 19.8943 12.0822 19.8958 14.2343 19.8943C16.3871 19.8958 18.5486 19.8943 20.6831 19.6485C21.5848 19.5444 22.334 18.846 22.545 17.9C22.8453 16.5532 22.8461 15.0818 22.8461 13.6946C22.8461 12.3077 22.8489 10.8369 22.5484 9.49014C22.3374 8.5433 21.5884 7.84575 20.6863 7.74184C18.5511 7.49521 16.3896 7.49432 14.238 7.49521C12.0859 7.49432 9.92375 7.49521 7.7881 7.74184C6.88729 7.84575 6.1381 8.5433 5.92796 9.49014C5.6279 10.8369 5.62427 12.3077 5.62427 13.6949C5.62427 15.082 5.62427 16.5532 5.92475 17.9C6.13469 18.846 6.88387 19.5444 7.78575 19.6485ZM12.0131 10.5735C13.8377 11.557 15.6509 12.5336 17.4878 13.5237C15.6562 14.5045 13.8429 15.4762 12.0131 16.4564V10.5735Z"/>
<!--<path d="M0.977295 0V27.3903H27.4935V0H0.977295ZM25.8533 25.6961H2.61747V1.69425H25.8533V25.6961Z"/>-->
</g>
<defs>
<clipPath id="clip0">
<rect width="26.5162" height="27.3903" transform="translate(0.977295)"/>
</clipPath>
</defs>
</svg>
