<svg width="69" height="114" viewBox="0 0 69 114" fill="none" xmlns="http://www.w3.org/2000/svg">
<path d="M42.4741 114C41.3892 114 40.4127 113.62 39.5448 112.86C38.7854 111.991 38.4057 111.014 38.4057 109.929V33.7114L16.5991 50.4857C15.7311 51.0286 14.9175 51.3 14.158 51.3C12.8561 51.3 11.717 50.6486 10.7406 49.3457L0.650943 36.3171C0.216981 35.5571 0 34.7429 0 33.8743C0 32.3543 0.596698 31.16 1.79009 30.2914L39.5448 1.14001C40.6297 0.380005 41.8774 0 43.2877 0H64.7689C65.9623 0 66.9387 0.380005 67.6981 1.14001C68.566 1.9 69 2.87714 69 4.07143V109.929C69 111.123 68.566 112.1 67.6981 112.86C66.9387 113.62 65.9623 114 64.7689 114H42.4741Z" fill="#F2F2F2"/>
</svg>
