<svg width="92" height="114" viewBox="0 0 92 114" fill="none" xmlns="http://www.w3.org/2000/svg">
<path d="M4.02802 114C2.95388 114 1.98716 113.627 1.12785 112.881C0.375948 112.028 0 111.069 0 110.003V98.0112C0 94.8135 1.34267 92.1487 4.02802 90.0168L19.0123 75.467C29.2166 67.7924 36.8967 61.8233 42.0525 57.5596C47.3158 53.2959 51.2901 49.4586 53.9755 46.0477C56.7682 42.5302 58.1646 39.2258 58.1646 36.1346C58.1646 28.2468 54.1903 24.3029 46.2417 24.3029C42.0525 24.3029 38.8301 25.582 36.5744 28.1403C34.3187 30.5919 32.8149 33.683 32.063 37.4137C31.4186 39.8654 29.5925 41.0912 26.5849 41.0912H5.31699C4.35026 41.0912 3.49095 40.7714 2.73905 40.1318C2.09457 39.3857 1.77233 38.5863 1.77233 37.7335C1.98716 30.6985 3.92061 24.3562 7.57268 18.7069C11.3322 12.9509 16.5417 8.42076 23.2014 5.11641C29.8611 1.70547 37.5411 0 46.2417 0C55.2644 0 63.0519 1.43899 69.6042 4.31698C76.1564 7.19496 81.0975 11.2454 84.4273 16.4684C87.8645 21.6914 89.5832 27.7672 89.5832 34.6957C89.5832 42.3703 87.1664 49.2987 82.3327 55.4811C77.6065 61.6634 70.3561 68.3787 60.5814 75.6269L47.2084 88.8976H87.972C89.1535 88.8976 90.1202 89.2707 90.8721 90.0168C91.624 90.763 92 91.7223 92 92.8948V110.003C92 111.069 91.624 112.028 90.8721 112.881C90.1202 113.627 89.1535 114 87.972 114H4.02802Z" fill="#F2F2F2"/>
</svg>
