<svg width="96" height="114" viewBox="0 0 96 114" fill="none" xmlns="http://www.w3.org/2000/svg">
<path d="M47.8384 114C37.2795 114 28.3906 112.394 21.1717 109.183C14.0606 105.865 8.78115 101.797 5.33333 96.9803C1.99327 92.1634 0.215488 87.3465 0 82.5296C0 81.5662 0.323232 80.7634 0.969697 80.1211C1.72391 79.4789 2.58586 79.1577 3.55556 79.1577H25.8586C27.1515 79.1577 28.1751 79.4254 28.9293 79.9606C29.6835 80.3887 30.3838 81.138 31.0303 82.2084C33.0774 87.4535 38.734 90.076 48 90.076C53.2795 90.076 57.3737 88.8451 60.2828 86.3831C63.1919 83.9211 64.6465 80.6028 64.6465 76.4282C64.6465 68.4 59.2593 64.3859 48.4849 64.3859H30.3838C29.1987 64.3859 28.1751 64.0113 27.3131 63.262C26.5589 62.4056 26.1818 61.3887 26.1818 60.2113V50.738C26.1818 48.2761 27.0976 46.4563 28.9293 45.2789L54.9495 24.0845H10.3434C9.266 24.0845 8.2963 23.7099 7.43434 22.9606C6.68013 22.1042 6.30303 21.1408 6.30303 20.0704V4.17465C6.30303 2.99718 6.68013 2.0338 7.43434 1.28451C8.18855 0.42817 9.15825 0 10.3434 0H85.6566C86.8418 0 87.8115 0.42817 88.5657 1.28451C89.3199 2.0338 89.697 2.99718 89.697 4.17465V18.4648C89.697 20.7127 88.835 22.4789 87.1111 23.7634L63.1919 45.4394L64.3232 45.7606C74.0202 47.1521 81.7239 50.4704 87.4343 55.7155C93.1448 60.9606 96 68.507 96 78.3549C96 85.5267 93.899 91.8422 89.697 97.3014C85.6027 102.654 79.8923 106.775 72.5657 109.665C65.3468 112.555 57.1044 114 47.8384 114Z" fill="#F2F2F2"/>
</svg>
