<svg xmlns="http://www.w3.org/2000/svg" viewBox="0 0 30 35.167">
    <defs>
        <style>
            .cls-1{fill:none}.cls-2{clip-path:url(#clip-path)}.cls-3{fill:#4aa7ca}
        </style>
        <clipPath id="clip-path">
            <path id="Path_15" d="M0-24.108h30v-35.167H0z" class="cls-1" data-name="Path 15" transform="translate(0 59.275)"/>
        </clipPath>
    </defs>
    <g id="Bulb" transform="translate(-370 -200.17)">
        <g id="Group_16" class="cls-2" data-name="Group 16" transform="translate(370 200.17)">
            <g id="Group_5" data-name="Group 5" transform="translate(5.827 6.208)">
                <path id="Path_4" d="M-6.289-15.382c-.817 0-1.634.006-2.451 0a2.216 2.216 0 0 1-2.342-2.318c-.017-.564-.076-1.126-.1-1.689a2.019 2.019 0 0 0-.549-1.3c-.589-.649-1.2-1.28-1.753-1.96a9.4 9.4 0 0 1 3.65-14.4 8.52 8.52 0 0 1 6.667-.177 8.88 8.88 0 0 1 5.959 7.569 9.247 9.247 0 0 1-2.7 7.963c-.193.2-.367.415-.574.6a2.923 2.923 0 0 0-.975 2.31c0 .4-.03.792-.043 1.188a2.193 2.193 0 0 1-2.23 2.209c-.853.019-1.706 0-2.559 0m-.028-1.547h2.487a.7.7 0 0 0 .784-.772c.019-.527.051-1.055.075-1.583a3.824 3.824 0 0 1 1.1-2.59c.361-.37.7-.755 1.059-1.131a7.737 7.737 0 0 0 2.028-6.753 7.59 7.59 0 0 0-11.749-5.16A7.93 7.93 0 0 0-11.9-23.152c.485.516.966 1.038 1.433 1.569a3.083 3.083 0 0 1 .8 1.852c.047.67.1 1.34.134 2.011.026.543.256.787.8.789h2.414" class="cls-3" data-name="Path 4" transform="translate(15.463 37.821)"/>
            </g>
            <g id="Group_6" data-name="Group 6" transform="translate(11.495 31.66)">
                <path id="Path_5" d="M-2.4-1.319h-2.41a.985.985 0 0 1-1.09-.949.973.973 0 0 1 1.065-.97q2.446-.008 4.892 0a.97.97 0 0 1 1.051.947.978.978 0 0 1-1.065.97h-2.446" class="cls-3" data-name="Path 5" transform="translate(5.895 3.242)"/>
            </g>
            <g id="Group_7" data-name="Group 7" transform="translate(11.495 29.26)">
                <path id="Path_6" d="M-2.419 0H.032a.962.962 0 0 1 1.029.93.952.952 0 0 1-1.023.97q-2.486.011-4.974 0A.948.948 0 0 1-5.947.953.964.964 0 0 1-4.906 0h2.487" class="cls-3" data-name="Path 6" transform="translate(5.947 .002)"/>
            </g>
            <g id="Group_8" data-name="Group 8" transform="translate(0 14.002)">
                <path id="Path_7" d="M-3.078-.005v1.994h-.751c-.912 0-1.824.006-2.736 0a.977.977 0 0 1-1-.93A.952.952 0 0 1-6.658 0c1.2-.033 2.4-.01 3.58-.01" class="cls-3" data-name="Path 7" transform="translate(7.567 .013)"/>
            </g>
            <g id="Group_9" data-name="Group 9" transform="translate(25.514 13.998)">
                <path id="Path_8" d="M0-1.359v-1.98h1.264c.72 0 1.44-.008 2.16 0a1 1 0 0 1 1.061 1.025.986.986 0 0 1-1.063.977H.182c-.036 0-.071-.008-.182-.022" class="cls-3" data-name="Path 8" transform="translate(0 3.342)"/>
            </g>
            <g id="Group_10" data-name="Group 10" transform="translate(4.086 4.097)">
                <path id="Path_9" d="M-2.865-1.9l-1.35 1.42c-.874-.862-1.759-1.7-2.606-2.584A.954.954 0 0 1-6.709-4.4a.972.972 0 0 1 1.368.021c.832.817 1.641 1.648 2.476 2.479" class="cls-3" data-name="Path 9" transform="translate(7.044 4.667)"/>
            </g>
            <g id="Group_11" data-name="Group 11" transform="translate(21.758 4.089)">
                <path id="Path_10" d="M-.9-2.864l-1.31-1.371c.842-.858 1.673-1.737 2.543-2.576a.939.939 0 0 1 1.307.077.941.941 0 0 1 .1 1.279C.885-4.569-.015-3.726-.9-2.864" class="cls-3" data-name="Path 10" transform="translate(2.21 7.041)"/>
            </g>
            <g id="Group_12" data-name="Group 12" transform="translate(13.995)">
                <path id="Path_11" d="M-1.377-2.986h-1.985c-.007-.081-.022-.173-.022-.266v-2.99a1.019 1.019 0 0 1 .991-1.1 1.021 1.021 0 0 1 1.015 1.113v3.243" class="cls-3" data-name="Path 11" transform="translate(3.386 7.342)"/>
            </g>
            <g id="Group_13" data-name="Group 13" transform="translate(4.086 22.245)">
                <path id="Path_12" d="M-1.573 0l1.2 1.508c-.643.663-1.262 1.345-1.927 1.972a.938.938 0 0 1-1.274-.122.95.95 0 0 1-.077-1.28C-2.985 1.363-2.271.691-1.573 0" class="cls-3" data-name="Path 12" transform="translate(3.869)"/>
            </g>
            <g id="Group_14" data-name="Group 14" transform="translate(22.395 22.25)">
                <path id="Path_13" d="M-.835 0c.692.68 1.4 1.343 2.066 2.044a.961.961 0 0 1-.083 1.334.972.972 0 0 1-1.338.035c-.631-.6-1.232-1.238-1.864-1.878L-.835 0" class="cls-3" data-name="Path 13" transform="translate(2.054)"/>
            </g>
            <g id="Group_15" data-name="Group 15" transform="translate(12.775 34.11)">
                <path id="Path_14" d="M-3.055 0c-.092.2-.149.349-.227.486-.431.759-3.559.757-4 .013-.084-.144-.141-.305-.23-.499z" class="cls-3" data-name="Path 14" transform="translate(7.512)"/>
            </g>
        </g>
    </g>
</svg>
