<svg xmlns="http://www.w3.org/2000/svg" viewBox="0 0 150 150">
    <defs>
        <style>
            .cls-1,.cls-4{fill:none}.cls-2{clip-path:url(#clip-path)}.cls-3{fill:#fff}.cls-4{stroke:#4aa7ca;stroke-width:.903px}
        </style>
        <clipPath id="clip-path">
            <path id="Path_3" d="M0 16.549h150v-150H0z" class="cls-1" data-name="Path 3" transform="translate(0 133.451)"/>
        </clipPath>
    </defs>
    <g id="Circle" transform="translate(-310 -105.451)">
        <g id="Group_3" class="cls-2" data-name="Group 3" transform="translate(310.507 105.958)">
            <g id="Group_1" data-name="Group 1">
                <path id="Path_1" d="M8.219 16.437c-1.385 0-3.006-.691-5.513-1.966a10.117 10.117 0 0 0-3.89-1.077 10.506 10.506 0 0 0-1.96-.187 10.1 10.1 0 0 0-2.068.212 22.6 22.6 0 0 1-4.439.646c-1.9 0-3.066-.653-6.227-3.495a10.1 10.1 0 0 0-3.479-2.047 10.226 10.226 0 0 0-3.9-1.018c-5.783-.3-6.408-.663-9.563-5.511a10.1 10.1 0 0 0-2.83-2.876 10.234 10.234 0 0 0-3.5-1.992c-5.509-1.791-6.019-2.3-7.812-7.8a10.135 10.135 0 0 0-1.99-3.513 10.246 10.246 0 0 0-2.867-2.831c-4.858-3.155-5.219-3.78-5.527-9.554a10.116 10.116 0 0 0-1.013-3.907 10.232 10.232 0 0 0-2.041-3.474c-3.876-4.3-4.062-5-2.865-10.659a10.145 10.145 0 0 0 .034-4.037 10.224 10.224 0 0 0-1.069-3.885c-2.629-5.161-2.63-5.883-.009-11.038a10.124 10.124 0 0 0 1.078-3.891 10.244 10.244 0 0 0-.026-4.027c-1.2-5.667-1.019-6.364 2.847-10.665a10.116 10.116 0 0 0 2.047-3.48 10.22 10.22 0 0 0 1.018-3.9c.3-5.784.663-6.409 5.511-9.564a10.113 10.113 0 0 0 2.877-2.83 10.231 10.231 0 0 0 1.992-3.5c1.791-5.509 2.3-6.019 7.8-7.811a10.128 10.128 0 0 0 3.513-1.989 10.246 10.246 0 0 0 2.83-2.868c3.155-4.857 3.78-5.218 9.554-5.526a10.136 10.136 0 0 0 3.907-1.013 10.232 10.232 0 0 0 3.477-2.037c3.168-2.852 4.332-3.506 6.237-3.506a22.544 22.544 0 0 1 4.422.64 9.939 9.939 0 0 0 2.087.219 10.365 10.365 0 0 0 1.948-.185 10.232 10.232 0 0 0 3.89-1.069c2.517-1.282 4.139-1.975 5.525-1.975s3.006.691 5.513 1.966a10.143 10.143 0 0 0 3.891 1.077 10.509 10.509 0 0 0 1.961.187 10.1 10.1 0 0 0 2.067-.212 22.592 22.592 0 0 1 4.438-.646c1.9 0 3.065.653 6.226 3.493a10.121 10.121 0 0 0 3.48 2.048 10.208 10.208 0 0 0 3.9 1.017c5.785.3 6.411.664 9.564 5.511a10.146 10.146 0 0 0 2.83 2.879 10.228 10.228 0 0 0 3.5 1.992c5.509 1.791 6.02 2.3 7.812 7.8a10.087 10.087 0 0 0 1.991 3.513 10.208 10.208 0 0 0 2.866 2.83c4.858 3.156 5.22 3.78 5.527 9.555a10.136 10.136 0 0 0 1.009 3.904 10.2 10.2 0 0 0 2.038 3.477c3.875 4.3 4.062 5 2.864 10.659a10.14 10.14 0 0 0-.033 4.036 10.222 10.222 0 0 0 1.068 3.886c2.63 5.161 2.631 5.883.008 11.038a10.132 10.132 0 0 0-1.076 3.891 10.223 10.223 0 0 0 .026 4.027c1.2 5.667 1.018 6.364-2.847 10.665a10.094 10.094 0 0 0-2.048 3.48 10.245 10.245 0 0 0-1.018 3.9c-.3 5.786-.663 6.411-5.511 9.565a10.113 10.113 0 0 0-2.871 2.827 10.208 10.208 0 0 0-1.993 3.5c-1.789 5.51-2.3 6.021-7.8 7.813a10.12 10.12 0 0 0-3.513 1.989 10.212 10.212 0 0 0-2.83 2.867c-3.155 4.858-3.78 5.219-9.555 5.527A10.107 10.107 0 0 0 35.8 8.525a10.2 10.2 0 0 0-3.475 2.037c-3.169 2.852-4.334 3.506-6.238 3.506a22.568 22.568 0 0 1-4.421-.64 9.951 9.951 0 0 0-2.088-.22 10.4 10.4 0 0 0-1.949.187 10.212 10.212 0 0 0-3.885 1.068c-2.516 1.282-4.139 1.975-5.525 1.975" class="cls-3" data-name="Path 1" transform="translate(66.271 132.549)"/>
            </g>
            <g id="Group_2" data-name="Group 2">
                <path id="Path_2" d="M8.219 16.437c-1.385 0-3.006-.691-5.513-1.966a10.117 10.117 0 0 0-3.89-1.077 10.506 10.506 0 0 0-1.96-.187 10.1 10.1 0 0 0-2.068.212 22.6 22.6 0 0 1-4.439.646c-1.9 0-3.066-.653-6.227-3.495a10.1 10.1 0 0 0-3.479-2.047 10.226 10.226 0 0 0-3.9-1.018c-5.783-.3-6.408-.663-9.563-5.511a10.1 10.1 0 0 0-2.83-2.876 10.234 10.234 0 0 0-3.5-1.992c-5.509-1.791-6.019-2.3-7.812-7.8a10.135 10.135 0 0 0-1.99-3.513 10.246 10.246 0 0 0-2.867-2.831c-4.858-3.155-5.219-3.78-5.527-9.554a10.116 10.116 0 0 0-1.013-3.907 10.232 10.232 0 0 0-2.041-3.474c-3.876-4.3-4.062-5-2.865-10.659a10.145 10.145 0 0 0 .034-4.037 10.224 10.224 0 0 0-1.069-3.885c-2.629-5.161-2.63-5.883-.009-11.038a10.124 10.124 0 0 0 1.078-3.891 10.244 10.244 0 0 0-.026-4.027c-1.2-5.667-1.019-6.364 2.847-10.665a10.116 10.116 0 0 0 2.047-3.48 10.22 10.22 0 0 0 1.018-3.9c.3-5.784.663-6.409 5.511-9.564a10.113 10.113 0 0 0 2.877-2.83 10.231 10.231 0 0 0 1.992-3.5c1.791-5.509 2.3-6.019 7.8-7.811a10.128 10.128 0 0 0 3.513-1.989 10.246 10.246 0 0 0 2.83-2.868c3.155-4.857 3.78-5.218 9.554-5.526a10.136 10.136 0 0 0 3.907-1.013 10.232 10.232 0 0 0 3.477-2.037c3.168-2.852 4.332-3.506 6.237-3.506a22.544 22.544 0 0 1 4.422.64 9.939 9.939 0 0 0 2.087.219 10.365 10.365 0 0 0 1.948-.185 10.232 10.232 0 0 0 3.89-1.069c2.517-1.282 4.139-1.975 5.525-1.975s3.006.691 5.513 1.966a10.143 10.143 0 0 0 3.891 1.077 10.509 10.509 0 0 0 1.961.187 10.1 10.1 0 0 0 2.067-.212 22.592 22.592 0 0 1 4.438-.646c1.9 0 3.065.653 6.226 3.493a10.121 10.121 0 0 0 3.48 2.048 10.208 10.208 0 0 0 3.9 1.017c5.785.3 6.411.664 9.564 5.511a10.146 10.146 0 0 0 2.83 2.879 10.228 10.228 0 0 0 3.5 1.992c5.509 1.791 6.02 2.3 7.812 7.8a10.087 10.087 0 0 0 1.991 3.513 10.208 10.208 0 0 0 2.866 2.83c4.858 3.156 5.22 3.78 5.527 9.555a10.136 10.136 0 0 0 1.009 3.904 10.2 10.2 0 0 0 2.038 3.477c3.875 4.3 4.062 5 2.864 10.659a10.14 10.14 0 0 0-.033 4.036 10.222 10.222 0 0 0 1.068 3.886c2.63 5.161 2.631 5.883.008 11.038a10.132 10.132 0 0 0-1.076 3.891 10.223 10.223 0 0 0 .026 4.027c1.2 5.667 1.018 6.364-2.847 10.665a10.094 10.094 0 0 0-2.048 3.48 10.245 10.245 0 0 0-1.018 3.9c-.3 5.786-.663 6.411-5.511 9.565a10.113 10.113 0 0 0-2.871 2.827 10.208 10.208 0 0 0-1.993 3.5c-1.789 5.51-2.3 6.021-7.8 7.813a10.12 10.12 0 0 0-3.513 1.989 10.212 10.212 0 0 0-2.83 2.867c-3.155 4.858-3.78 5.219-9.555 5.527A10.107 10.107 0 0 0 35.8 8.525a10.2 10.2 0 0 0-3.475 2.037c-3.169 2.852-4.334 3.506-6.238 3.506a22.568 22.568 0 0 1-4.421-.64 9.951 9.951 0 0 0-2.088-.22 10.4 10.4 0 0 0-1.949.187 10.212 10.212 0 0 0-3.885 1.068c-2.516 1.282-4.139 1.974-5.525 1.974z" class="cls-4" data-name="Path 2" transform="translate(66.271 132.549)"/>
            </g>
        </g>
    </g>
</svg>
