<svg width="205" height="170" viewBox="0 0 205 170" fill="none" xmlns="http://www.w3.org/2000/svg">
<g id="Card/Icon">
<path id="Card/Image/Plate" d="M0 0H205V170H0V0Z" fill="#C4C4C4" fill-opacity="0.1"/>
<g id="Card/Image/Watermark">
<path id="Mountain/Small" d="M102.609 86.3821L118.925 113.239C119.955 114.935 120.439 116.731 120.462 118.485H136.095C142.408 118.485 146.353 111.991 143.197 106.795L123.804 74.8731C120.648 69.6777 112.757 69.6777 109.601 74.8731L102.609 86.3821Z" fill="#969696"/>
<path id="Mountain/Large" d="M75.2227 70.6768C78.3789 65.4814 86.2696 65.4814 89.4259 70.6768L116.193 114.738C119.35 119.934 115.404 126.428 109.092 126.428H55.5567C49.2442 126.428 45.2988 119.934 48.4551 114.738L75.2227 70.6768Z" fill="#969696"/>
<path id="Moon" d="M149.818 53.5916C149.818 58.8888 145.3 63.1831 139.726 63.1831C134.152 63.1831 129.633 58.8888 129.633 53.5916C129.633 48.2943 134.152 44 139.726 44C145.3 44 149.818 48.2943 149.818 53.5916Z" fill="#969696"/>
</g>
</g>
</svg>
