<svg xmlns="http://www.w3.org/2000/svg" viewBox="0 0 31.996 31.929">
    <defs>
        <style>
            .cls-1{fill:url(#radial-gradient)}.cls-2{fill:#fff}
        </style>
        <radialGradient id="radial-gradient" cx="9.299" cy="31.85" r="32.322" gradientTransform="translate(.019 .066)" gradientUnits="userSpaceOnUse">
            <stop offset="0" stop-color="#ffd776"/>
            <stop offset=".246" stop-color="#f3a554"/>
            <stop offset=".379" stop-color="#f15c3c"/>
            <stop offset=".539" stop-color="#d94867"/>
            <stop offset=".7" stop-color="#c32f87"/>
            <stop offset=".912" stop-color="#7d63a7"/>
            <stop offset=".985" stop-color="#5c6cb3"/>
        </radialGradient>
    </defs>
    <g id="Insta_logo" data-name="Insta logo" transform="translate(-513.004 -2123)">
        <g id="Group_20" data-name="Group 20" transform="translate(513.004 2123)">
            <path id="Path_19" d="M32 24.935a6.978 6.978 0 0 1-6.961 6.995H6.961A6.978 6.978 0 0 1 0 24.935V6.995A6.978 6.978 0 0 1 6.961 0h18.073A6.978 6.978 0 0 1 32 6.995v17.94z" class="cls-1" data-name="Path 19"/>
        </g>
        <path id="Path_20" d="M103.123 105.938H93.4a6.787 6.787 0 0 1-6.767-6.767V88.807A6.787 6.787 0 0 1 93.4 82.04h9.726a6.787 6.787 0 0 1 6.767 6.767v10.364a6.787 6.787 0 0 1-6.77 6.767zm0-1.788a5 5 0 0 0 4.979-4.979V88.807a5 5 0 0 0-4.979-4.979H93.4a5 5 0 0 0-4.979 4.979v10.364a5 5 0 0 0 4.979 4.979z" class="cls-2" data-name="Path 20" transform="translate(430.695 2045.051)"/>
        <path id="Path_21" d="M204.93 197.755a6.405 6.405 0 1 1-6.405-6.405 6.4 6.4 0 0 1 6.405 6.405zm-6.436-4.189a4.194 4.194 0 1 0 4.194 4.194 4.194 4.194 0 0 0-4.194-4.194z" class="cls-2" data-name="Path 21" transform="translate(330.465 1941.193)"/>
        <ellipse id="Ellipse_2" cx="1.517" cy="1.517" class="cls-2" data-name="Ellipse 2" rx="1.517" ry="1.517" transform="translate(533.982 2130.927)"/>
    </g>
</svg>
