<svg width="167" height="174" viewBox="0 0 167 174" fill="none" xmlns="http://www.w3.org/2000/svg">
<path d="M35.559 87.3671C25.1283 87.3671 16.7522 84.512 10.4306 78.8017C4.26708 73.0914 0.869219 65.3418 0.237059 55.5528C0.0790195 52.7792 0 49.1083 0 44.5401C0 39.6456 0.0790195 35.73 0.237059 32.7933C0.869219 22.6779 4.18805 14.6835 10.1936 8.81013C16.1991 2.93671 24.6542 0 35.559 0C46.4637 0 54.9188 2.93671 60.9244 8.81013C67.0879 14.6835 70.4858 22.6779 71.1179 32.7933C71.434 38.6667 71.5921 42.5823 71.5921 44.5401C71.5921 46.3347 71.434 50.0056 71.1179 55.5528C70.4858 65.3418 67.0089 73.0914 60.6873 78.8017C54.5238 84.512 46.1476 87.3671 35.559 87.3671ZM16.3571 172.532C14.7767 172.532 13.5124 172.124 12.5642 171.308C11.6159 170.329 11.1418 169.106 11.1418 167.637C11.1418 166.658 11.4579 165.761 12.09 164.945L128.961 5.87341C130.225 4.24191 131.41 3.09986 132.516 2.44726C133.623 1.6315 135.203 1.22363 137.258 1.22363H149.822C151.402 1.22363 152.587 1.71308 153.378 2.69199C154.326 3.50774 154.8 4.6498 154.8 6.11816C154.8 7.09706 154.484 7.99438 153.852 8.81013L36.9813 167.882C35.717 169.513 34.5317 170.737 33.4254 171.553C32.3192 172.205 30.8178 172.532 28.9213 172.532H16.3571ZM35.559 69.0127C40.1421 69.0127 43.461 67.6259 45.5155 64.8523C47.728 62.0788 49.0714 58.571 49.5455 54.3291C49.8616 48.782 50.0196 45.3558 50.0196 44.0506C50.0196 42.256 49.8616 38.9114 49.5455 34.0169C49.2294 29.775 47.9651 26.2672 45.7525 23.4937C43.54 20.557 40.1421 19.0886 35.559 19.0886C31.1338 19.0886 27.815 20.557 25.6025 23.4937C23.3899 26.2672 22.1256 29.775 21.8095 34.0169C21.6515 36.4641 21.5724 39.8087 21.5724 44.0506C21.5724 48.1294 21.6515 51.5556 21.8095 54.3291C22.1256 58.4079 23.3109 61.9156 25.3654 64.8523C27.578 67.6259 30.9758 69.0127 35.559 69.0127ZM130.383 174C119.952 174 111.576 171.063 105.255 165.19C99.091 159.153 95.6931 151.159 95.061 141.207C94.9029 138.433 94.8239 134.762 94.8239 130.194C94.8239 125.463 94.9029 121.629 95.061 118.692C95.6931 108.577 99.012 100.582 105.017 94.7089C111.023 88.8355 119.478 85.8987 130.383 85.8987C141.446 85.8987 149.98 88.8355 155.985 94.7089C161.991 100.582 165.31 108.577 165.942 118.692C166.258 124.565 166.416 128.399 166.416 130.194C166.416 131.989 166.258 135.66 165.942 141.207C165.31 151.159 161.833 159.153 155.511 165.19C149.348 171.063 140.972 174 130.383 174ZM130.383 154.911C135.124 154.911 138.522 153.525 140.576 150.751C142.789 147.814 144.053 144.307 144.369 140.228C144.686 134.681 144.844 131.173 144.844 129.705C144.844 128.073 144.686 124.81 144.369 119.916C144.053 115.674 142.789 112.166 140.576 109.392C138.364 106.456 134.966 104.987 130.383 104.987C125.958 104.987 122.639 106.456 120.426 109.392C118.214 112.166 116.949 115.674 116.633 119.916C116.475 122.363 116.396 125.626 116.396 129.705C116.396 133.947 116.475 137.454 116.633 140.228C116.949 144.307 118.135 147.814 120.189 150.751C122.402 153.525 125.8 154.911 130.383 154.911Z" fill="#F2F2F2"/>
</svg>
