<svg width="152" height="124" viewBox="0 0 152 124" fill="none" xmlns="http://www.w3.org/2000/svg">
<path d="M84.3862 84.5932C84.3862 65.3277 91.7241 47.4633 106.4 31C121.076 14.5367 133.655 4.2034 144.138 0L152 11.0339C141.517 16.6384 132.607 24.6949 125.269 35.2034C118.28 45.7119 114.262 56.5706 113.214 67.7797C116.009 66.0282 120.377 65.1525 126.317 65.1525C132.607 65.1525 138.023 67.9548 142.566 73.5593C147.108 78.8136 149.379 85.8192 149.379 94.5762C149.379 103.333 146.06 110.514 139.421 116.119C133.131 121.373 125.269 124 115.834 124C106.4 124 98.7126 120.672 92.7724 114.017C87.1816 107.362 84.3862 97.5537 84.3862 84.5932ZM31.4483 124C22.3632 124 14.8506 119.096 8.91035 109.288C2.97012 99.4802 0 88.6215 0 76.7119C0 64.8022 2.44598 54.2938 7.33793 45.1865C12.2299 35.7288 18.3448 28.0226 25.6828 22.0678C39.6598 10.8588 51.0161 3.50282 59.7517 0L67.6138 11.0339C57.131 16.6384 48.2207 24.6949 40.8828 35.2034C33.8943 45.7119 29.8759 56.5706 28.8276 67.7797C31.623 66.0282 35.9908 65.1525 41.931 65.1525C48.2207 65.1525 53.6368 67.9548 58.1793 73.5593C62.7218 78.8136 64.9931 85.8192 64.9931 94.5762C64.9931 103.333 61.6736 110.514 55.0345 116.119C48.7448 121.373 40.8828 124 31.4483 124Z" fill="#F2F2F2"/>
</svg>
