<svg xmlns="http://www.w3.org/2000/svg" viewBox="0 0 3.119 140">
    <defs>
        <style>
            .cls-1,.cls-3{fill:none}.cls-2{clip-path:url(#clip-path)}.cls-3{stroke:#4aa7ca;stroke-width:.53px}
        </style>
        <clipPath id="clip-path">
            <path id="Path_18" d="M3.119 50.236H0v-140h3.119z" class="cls-1" data-name="Path 18" transform="translate(0 89.764)"/>
        </clipPath>
    </defs>
    <g id="Quote_line" data-name="Quote line" transform="translate(-711.835 -1302)">
        <g id="Group_19" class="cls-2" data-name="Group 19" transform="translate(711.835 1302)">
            <g id="Group_18" data-name="Group 18" transform="translate(.416)">
                <path id="Path_17" d="M.41 0a5 5 0 0 0 0 6.363 5 5 0 0 1 0 6.363 5 5 0 0 0 0 6.365 5 5 0 0 1 0 6.363 5 5 0 0 0 0 6.363 5 5 0 0 1 0 6.363 5 5 0 0 0 0 6.363 5 5 0 0 1 0 6.363 5 5 0 0 0 0 6.365 5 5 0 0 1 0 6.363A5 5 0 0 0 .41 70a5 5 0 0 1 0 6.363 5 5 0 0 0 0 6.363 5 5 0 0 1 0 6.363 5 5 0 0 0 0 6.365 5 5 0 0 1 0 6.363 5 5 0 0 0 0 6.363 5 5 0 0 1 0 6.363 5 5 0 0 0 0 6.363 5 5 0 0 1 0 6.363 5 5 0 0 0 0 6.365 5 5 0 0 1 0 6.366" class="cls-3" data-name="Path 17" transform="translate(.734)"/>
            </g>
        </g>
    </g>
</svg>
