<svg width="383" height="103" viewBox="0 0 383 103" fill="none" xmlns="http://www.w3.org/2000/svg">
<path d="M3.744 102.24C2.688 102.24 1.776 101.904 1.008 101.232C0.335999 100.56 0 99.696 0 98.64L0 5.18401C0 4.128 0.335999 3.264 1.008 2.592C1.776 1.824 2.688 1.44 3.744 1.44L20.016 1.44C22.416 1.44 24.144 2.496 25.2 4.608L49.968 48.96L74.88 4.608C75.936 2.496 77.664 1.44 80.064 1.44L96.336 1.44C97.392 1.44 98.256 1.824 98.928 2.592C99.696 3.264 100.08 4.128 100.08 5.18401L100.08 98.64C100.08 99.696 99.696 100.56 98.928 101.232C98.256 101.904 97.392 102.24 96.336 102.24L78.048 102.24C77.088 102.24 76.224 101.904 75.456 101.232C74.784 100.464 74.448 99.6 74.448 98.64L74.448 46.224L58.896 74.736C57.648 76.944 55.968 78.048 53.856 78.048L46.08 78.048C44.16 78.048 42.48 76.944 41.04 74.736L25.632 46.224L25.632 98.64C25.632 99.696 25.248 100.56 24.48 101.232C23.808 101.904 22.944 102.24 21.888 102.24L3.744 102.24Z" fill="#F2F2F2"/>
<path d="M149.048 102.24C148.184 102.24 147.464 101.952 146.888 101.376C146.312 100.704 146.024 99.936 146.024 99.072C146.024 98.4 146.216 97.776 146.6 97.2L166.76 69.696C165.512 69.984 164.216 70.08 162.872 69.984C157.016 69.6 151.448 68.016 146.168 65.232C140.888 62.352 136.568 58.416 133.208 53.424C129.944 48.336 128.312 42.576 128.312 36.144C128.312 29.808 129.896 23.904 133.064 18.432C136.328 12.864 141.08 8.4 147.32 5.04C153.656 1.68 161.24 0 170.072 0C179 0 186.68 1.536 193.112 4.608C199.544 7.68 204.392 11.904 207.656 17.28C211.016 22.56 212.696 28.512 212.696 35.136C212.696 40.416 211.592 45.264 209.384 49.68C207.272 54 204.056 59.088 199.736 64.944L197.144 68.544L174.536 99.36C173.192 101.28 171.464 102.24 169.352 102.24L149.048 102.24ZM170.36 50.4C174.584 50.4 178.04 49.104 180.728 46.512C183.512 43.92 184.904 40.416 184.904 36C184.904 31.584 183.512 28.08 180.728 25.488C177.944 22.896 174.488 21.6 170.36 21.6C166.136 21.6 162.632 22.896 159.848 25.488C157.16 28.08 155.816 31.584 155.816 36C155.816 40.416 157.16 43.92 159.848 46.512C162.536 49.104 166.04 50.4 170.36 50.4Z" fill="#F2F2F2"/>
<path d="M271.662 102.24C270.702 102.24 269.838 101.904 269.07 101.232C268.398 100.464 268.062 99.6 268.062 98.64L268.062 31.248L248.766 46.08C247.998 46.56 247.278 46.8 246.606 46.8C245.454 46.8 244.446 46.224 243.582 45.072L234.654 33.552C234.27 32.88 234.078 32.16 234.078 31.392C234.078 30.048 234.606 28.992 235.662 28.224L269.07 2.44801C270.03 1.776 271.134 1.44 272.382 1.44L291.39 1.44C292.446 1.44 293.31 1.776 293.982 2.44801C294.75 3.12 295.134 3.984 295.134 5.04L295.134 98.64C295.134 99.696 294.75 100.56 293.982 101.232C293.31 101.904 292.446 102.24 291.39 102.24L271.662 102.24Z" fill="#F2F2F2"/>
<path d="M358.624 102.24C357.664 102.24 356.8 101.904 356.032 101.232C355.36 100.464 355.024 99.6 355.024 98.64L355.024 31.248L335.728 46.08C334.96 46.56 334.24 46.8 333.568 46.8C332.416 46.8 331.408 46.224 330.544 45.072L321.616 33.552C321.232 32.88 321.04 32.16 321.04 31.392C321.04 30.048 321.568 28.992 322.624 28.224L356.032 2.44801C356.992 1.776 358.096 1.44 359.344 1.44L378.352 1.44C379.408 1.44 380.272 1.776 380.944 2.44801C381.712 3.12 382.096 3.984 382.096 5.04L382.096 98.64C382.096 99.696 381.712 100.56 380.944 101.232C380.272 101.904 379.408 102.24 378.352 102.24L358.624 102.24Z" fill="#F2F2F2"/>
</svg>
