<svg width="60" height="47" viewBox="0 0 60 47" fill="none" xmlns="http://www.w3.org/2000/svg">
<path d="M1.16406 14.0518V32.3556L12.0194 32.3506L25.6672 44.5898C26.3155 44.9622 27.1195 44.9631 27.7687 44.5921C28.4179 44.2212 28.8109 43.5365 28.7958 42.8023V4.56839C28.8108 3.83424 28.4179 3.14942 27.7687 2.77857C27.1195 2.4076 26.3155 2.4085 25.6672 2.78094L12.0194 14.0518H1.16406Z" fill="white"/>
<path d="M12.0195 32.3507L25.6673 44.5899C26.3156 44.9623 27.1196 44.9632 27.7688 44.5922C28.418 44.2213 28.811 43.5366 28.7959 42.8024V4.56839C28.8109 3.83424 28.418 3.14942 27.7688 2.77857C27.1196 2.4076 26.3156 2.4085 25.6673 2.78094L12.0195 14.0518V32.3507Z" fill="#F2F2F2"/>
<path d="M4.125 14.0512V32.355L12.0198 32.35L22.707 41.9885C24.091 42.8017 25.8357 44.4056 25.8357 42.8017V4.56777C25.8357 2.96389 24.0911 4.56777 22.707 5.38094L12.0198 14.0512H4.125Z" fill="white"/>
<path d="M26.7205 45.8445C26.1697 45.843 25.6297 45.6944 25.1593 45.4146C25.1023 45.3815 25.049 45.3428 25.0003 45.2989L11.6354 33.3143L1.16454 33.3189C0.619619 33.3188 0.17785 32.8876 0.177734 32.3556V14.0517C0.177619 13.7961 0.281469 13.551 0.466619 13.3704C0.651768 13.1897 0.902836 13.0883 1.16454 13.0884H11.6585L25.031 2.04548C25.0712 2.01218 25.1139 1.98237 25.1592 1.95607C26.0912 1.39871 27.2605 1.38246 28.2084 1.91373C29.1907 2.45145 29.7945 3.46929 29.7832 4.56865V42.802C29.7945 43.9014 29.1908 44.9192 28.2084 45.4569C27.7551 45.7094 27.2424 45.8429 26.7205 45.8445ZM26.2511 43.805C26.5633 43.9599 26.9346 43.9503 27.2379 43.7796C27.5969 43.58 27.816 43.2053 27.8094 42.802V4.56865C27.816 4.1654 27.597 3.7907 27.2379 3.59122C26.9294 3.41657 26.5502 3.41014 26.2356 3.57429L12.6568 14.7875C12.4786 14.9343 12.2529 15.0149 12.0198 15.0152H2.15147V31.3923L12.0199 31.3876C12.2673 31.3873 12.5057 31.478 12.6878 31.6416L26.2511 43.805Z" fill="#EB0028"/>
<path d="M12.02 19.8314C11.7582 19.8315 11.5071 19.7301 11.3221 19.5494C11.1369 19.3686 11.0331 19.1235 11.0332 18.868V14.0512C11.0332 13.5191 11.4751 13.0879 12.02 13.0879C12.5651 13.0879 13.0068 13.5193 13.0068 14.0512V18.868C13.0069 19.1236 12.9031 19.3687 12.7179 19.5494C12.5329 19.7301 12.2818 19.8316 12.02 19.8314Z" fill="#EB0028"/>
<path d="M12.02 33.3187C11.7582 33.3188 11.5071 33.2174 11.3221 33.0367C11.1369 32.8559 11.0331 32.6108 11.0332 32.3553V27.5385C11.0332 27.0064 11.4751 26.5752 12.02 26.5752C12.5651 26.5752 13.0068 27.0064 13.0068 27.5385V32.3553C13.0069 32.6109 12.9031 32.856 12.7179 33.0367C12.5329 33.2174 12.2818 33.3188 12.02 33.3187Z" fill="#EB0028"/>
<path d="M38.1724 41.0254C37.6898 41.0254 37.278 40.6846 37.199 40.2199C37.12 39.7553 37.3967 39.3028 37.8534 39.1505C44.8493 36.8259 49.5515 30.4098 49.5462 23.1957C49.5409 15.9815 44.8294 9.57189 37.8303 7.257C37.4963 7.14637 37.2481 6.87034 37.1792 6.53268C37.1103 6.19501 37.2311 5.84719 37.4963 5.62016C37.7614 5.39313 38.1304 5.32133 38.4644 5.43196C46.2638 8.01192 51.5138 15.1545 51.5199 23.1934C51.526 31.2323 46.2868 38.3824 38.4913 40.9736C38.3888 41.0081 38.2809 41.0257 38.1724 41.0254Z" fill="#EB0028"/>
<path d="M42.954 46.1762C42.4788 46.1763 42.071 45.8457 41.9837 45.3899C41.8964 44.9339 42.1543 44.482 42.5973 44.3144C51.4037 40.9848 57.2628 32.7752 57.4116 23.5572C57.5604 14.3393 51.9693 5.95362 43.2748 2.35469C42.95 2.22023 42.7236 1.92693 42.6805 1.5852C42.6374 1.24347 42.7843 0.905358 43.0659 0.698085C43.3475 0.490812 43.7211 0.445993 44.0457 0.580449C53.4799 4.48612 59.5464 13.5853 59.385 23.5876C59.2235 33.5899 52.866 42.498 43.3104 46.1114C43.1967 46.1542 43.0759 46.1762 42.954 46.1762Z" fill="#EB0028"/>
<path d="M32.7432 35.7278C32.2515 35.728 31.8346 35.3747 31.7658 34.8993C31.697 34.4239 31.9971 33.9717 32.4696 33.8387C37.3228 32.471 40.6641 28.1344 40.6641 23.2032C40.6641 18.272 37.3228 13.9354 32.4696 12.5677C32.13 12.473 31.8681 12.2083 31.783 11.8735C31.6979 11.5389 31.8024 11.1853 32.0571 10.9464C32.3119 10.7076 32.6779 10.6197 33.017 10.7163C38.715 12.3222 42.6378 17.4137 42.6378 23.2032C42.6378 28.9927 38.715 34.0842 33.017 35.6901C32.9279 35.715 32.8359 35.7277 32.7432 35.7278Z" fill="#EB0028"/>
</svg>
